<?xml version="1.0" encoding="utf-8"?>
<!-- Generator: Adobe Illustrator 23.0.5, SVG Export Plug-In . SVG Version: 6.00 Build 0)  -->
<svg version="1.1" id="Layer_1" xmlns="http://www.w3.org/2000/svg" xmlns:xlink="http://www.w3.org/1999/xlink" x="0px" y="0px"
	 viewBox="0 0 30 30" style="enable-background:new 0 0 30 30;" xml:space="preserve">
<g>
	<polygon points="16.1,19.5 16.1,15.6 19.5,13.6 18.6,12.2 15.3,14.1 11.8,12.2 11,13.6 14.4,15.6 14.4,19.5 	"/>
	<polygon points="16,27.5 16,22.8 14.3,22.8 14.3,27.5 11.3,25.9 10.5,27.3 15.2,29.9 19.8,27.3 19,25.9 	"/>
	<polygon points="10.5,2.7 11.3,4.1 14.3,2.5 14.3,7.2 15.2,7.2 16,7.2 16,2.5 19,4.1 19.8,2.7 15.2,0.1 	"/>
	<polygon points="22.9,11.8 27,9.4 27.1,12.9 28.7,12.8 28.6,7.5 24,4.8 23.2,6.2 26.1,7.9 22.1,10.3 	"/>
	<polygon points="6.7,6 5.8,4.6 1.3,7.5 1.4,12.8 3.1,12.8 3,9.4 7.2,11.6 8,10.1 3.8,7.8 	"/>
	<polygon points="27,20.3 22.9,18 22.1,19.4 26.1,21.8 23.2,23.6 24,25 28.6,22.3 28.7,16.9 27.1,16.9 	"/>
	<polygon points="7.1,18 3,20.3 2.9,16.9 1.3,16.9 1.4,22.3 6,25 6.8,23.6 3.9,21.8 7.9,19.4 	"/>
</g>
</svg>
