<?xml version="1.0" encoding="utf-8"?>
<!-- Generator: Adobe Illustrator 23.0.5, SVG Export Plug-In . SVG Version: 6.00 Build 0)  -->
<svg version="1.1" id="Layer_1" xmlns="http://www.w3.org/2000/svg" xmlns:xlink="http://www.w3.org/1999/xlink" x="0px" y="0px"
	 viewBox="0 0 30 30" style="enable-background:new 0 0 30 30;" xml:space="preserve">
<style type="text/css">
	.st0{fill:#FD9A3F;}
</style>
<path class="st0" d="M3,1.1v20.5l12,8.1l12-8.1V1.1H3z M14.1,20.8c-2.7,0-4.8-1.1-5.8-2.5l1.5-1.8c1,1.2,2.6,1.9,4.2,1.9
	c2,0,3.2-0.9,3.2-2.4c0-1.5-1.2-2.2-3.4-2.2c-0.6,0-1.5,0-1.8,0v-2.4c0.3,0,1.2,0,1.8,0c1.8,0,3.2-0.6,3.2-2s-1.4-2.1-3.1-2.1
	c-1.6,0-2.9,0.6-4,1.7L8.5,7.3c1.2-1.4,3.1-2.4,5.6-2.4c3.3,0,5.5,1.6,5.5,4.1c0,2.1-1.8,3.3-3.3,3.5c1.5,0.2,3.6,1.4,3.6,3.7
	C20,18.9,17.7,20.8,14.1,20.8z"/>
</svg>
