<?xml version="1.0" encoding="utf-8"?>
<!-- Generator: Adobe Illustrator 23.0.5, SVG Export Plug-In . SVG Version: 6.00 Build 0)  -->
<svg version="1.1" id="Layer_1" xmlns="http://www.w3.org/2000/svg" xmlns:xlink="http://www.w3.org/1999/xlink" x="0px" y="0px"
	 viewBox="0 0 30 27.6" style="enable-background:new 0 0 30 27.6;" xml:space="preserve">
<g>
	<path d="M27.7,4.3c-1.3-1.3-3.1-2.1-5.1-2.1c-1.9,0-3.7,0.7-5.1,2.1L15,6.9l-2.6-2.6C11.1,3,9.3,2.2,7.4,2.2S3.7,3,2.4,4.3
		C1,5.7,0.3,7.4,0.3,9.3s0.7,3.7,2.1,5l3.1,3.1l-2.3,0.1l0.1,1.7l4.7-0.1L8.5,19l-0.1-5.1H6.6l0.1,2.6l-3.2-3.2
		c-1.1-1.1-1.6-2.5-1.6-3.9s0.6-2.9,1.6-3.9c2.2-2.2,5.8-2.2,8,0L15,9l3.6-3.6c2.2-2.2,5.8-2.2,8,0c1.1,1.1,1.6,2.5,1.6,3.9
		s-0.6,2.9-1.6,3.9L14.3,25.6l1.1,1.1l12.3-12.4c1.3-1.3,2.1-3.1,2.1-5S29.1,5.7,27.7,4.3z"/>
	<path d="M15.1,14.2h-0.8v-3.7h-1.8l-2.4,3.8v1H13v1.3h1.3v-1.3h0.8V14.2z M13,14.2h-1.6l1.6-2.5V14.2z"/>
	<path d="M18.1,15.5c-0.6,0-1.2-0.2-1.6-0.7l-0.7,0.9c0.5,0.6,1.3,0.9,2.3,0.9c1.5,0,2.4-0.8,2.4-2.1c0-1.2-0.9-2-1.9-2
		c-0.6,0-1,0.2-1.3,0.5v-1.5h2.9v-1.1H16V14l0.9,0.2c0.4-0.3,0.8-0.5,1.3-0.5c0.7,0,1.1,0.4,1.1,0.9C19.2,15.1,18.8,15.5,18.1,15.5z
		"/>
</g>
</svg>
