<?xml version="1.0" encoding="utf-8"?>
<!-- Generator: Adobe Illustrator 23.0.5, SVG Export Plug-In . SVG Version: 6.00 Build 0)  -->
<svg version="1.1" id="Layer_1" xmlns="http://www.w3.org/2000/svg" xmlns:xlink="http://www.w3.org/1999/xlink" x="0px" y="0px"
	 viewBox="0 0 30 27.6" style="enable-background:new 0 0 30 27.6;" xml:space="preserve">
<g>
	<path d="M27.8,4.2c-1.4-1.4-3.2-2.1-5.1-2.1c-1.9,0-3.8,0.8-5.1,2.1L15,6.8l-2.5-2.5c-1.4-1.4-3.2-2.1-5.1-2.1S3.7,2.9,2.3,4.2
		C0.9,5.6,0.2,7.4,0.2,9.3s0.7,3.7,2.1,5.1l4,4l-2.2,0.1l0.1,1.7l4.7-0.1L9.5,20l-0.1-5.1H7.6l0.1,2.4l-4.1-4.1
		c-1-1-1.6-2.4-1.6-3.9c0-1.5,0.6-2.8,1.6-3.9c2.2-2.2,5.7-2.2,7.8,0L15,9.2l3.7-3.7c2.2-2.2,5.7-2.2,7.8,0c1,1,1.6,2.4,1.6,3.9
		c0,1.5-0.6,2.8-1.6,3.9L14.2,25.6l1.2,1.2l12.4-12.4c1.4-1.4,2.1-3.2,2.1-5.1S29.2,5.6,27.8,4.2z"/>
	<path d="M15.2,14.6c0-1.3-1-2-2.1-2c-0.7,0-1.3,0.4-1.5,0.8c0,0,0-0.1,0-0.1c0-1,0.6-1.7,1.5-1.7c0.5,0,0.9,0.2,1.2,0.5l0.6-1
		c-0.4-0.4-1.1-0.6-1.8-0.6c-1.8,0-2.8,1.3-2.8,3.1c0,1.7,0.8,3.1,2.6,3.1C14.2,16.7,15.2,15.8,15.2,14.6z M12.8,15.5
		c-0.8,0-1.2-0.6-1.2-1.2c0.3-0.4,0.7-0.6,1.2-0.6c0.6,0,1.1,0.3,1.1,0.9C13.8,15.1,13.5,15.5,12.8,15.5z"/>
	<path d="M20.7,13.5c0-1.6-0.8-3.1-2.5-3.1c-1.7,0-2.5,1.6-2.5,3.1c0,1.6,0.8,3.1,2.5,3.1C20,16.7,20.7,15.1,20.7,13.5z M17.1,13.5
		c0-1.1,0.3-2,1.2-2c0.9,0,1.2,0.9,1.2,2c0,1.1-0.3,2-1.2,2C17.4,15.5,17.1,14.7,17.1,13.5z"/>
</g>
</svg>
