<?xml version="1.0" encoding="utf-8"?>
<!-- Generator: Adobe Illustrator 23.0.5, SVG Export Plug-In . SVG Version: 6.00 Build 0)  -->
<svg version="1.1" id="Layer_1" xmlns="http://www.w3.org/2000/svg" xmlns:xlink="http://www.w3.org/1999/xlink" x="0px" y="0px"
	 viewBox="0 0 30 30" style="enable-background:new 0 0 30 30;" xml:space="preserve">
<g>
	<path d="M23.8,4.7c-3.2,0-5.8,2.6-5.8,5.8s2.6,5.8,5.8,5.8c3.2,0,5.8-2.6,5.8-5.8S27,4.7,23.8,4.7z M27.1,11h-2.8V14h-1.1V11h-2.8
		v-1h2.8V7h1.1v3h2.8V11z"/>
	<path d="M22,18.1l-1.5,6.1H5.1L2.5,13.4h14c-0.2-0.6-0.4-1.2-0.5-1.9H7.4L12.1,6h2l2.1,2.7c0.2-0.7,0.4-1.4,0.8-2l-2-2.6h-3.8
		l-6.2,7.4H0.2L3.7,26H22l1.9-7.7c-0.1,0-0.1,0-0.2,0C23.2,18.3,22.6,18.2,22,18.1z"/>
</g>
</svg>
