<?xml version="1.0" encoding="utf-8"?>
<!-- Generator: Adobe Illustrator 23.0.5, SVG Export Plug-In . SVG Version: 6.00 Build 0)  -->
<svg version="1.1" id="Layer_1" xmlns="http://www.w3.org/2000/svg" xmlns:xlink="http://www.w3.org/1999/xlink" x="0px" y="0px"
	 viewBox="0 0 30 30" style="enable-background:new 0 0 30 30;" xml:space="preserve">
<style type="text/css">
	.st0{fill:#0071E3;}
</style>
<g>
	<path class="st0" d="M15,0.1C6.8,0.1,0.1,6.8,0.1,15S6.8,29.8,15,29.8S29.8,23.2,29.8,15S23.2,0.1,15,0.1z M15,28.2
		C7.7,28.2,1.9,22.3,1.9,15S7.7,1.9,15,1.9S28.2,7.7,28.2,15S22.3,28.2,15,28.2z"/>
	<polygon class="st0" points="15.9,8 14.1,8 14.1,14.1 8,14.1 8,15.9 14.1,15.9 14.1,22 15.9,22 15.9,15.9 22,15.9 22,14.1 
		15.9,14.1 	"/>
</g>
</svg>
