<?xml version="1.0" encoding="utf-8"?>
<!-- Generator: Adobe Illustrator 23.0.5, SVG Export Plug-In . SVG Version: 6.00 Build 0)  -->
<svg version="1.1" id="Layer_1" xmlns="http://www.w3.org/2000/svg" xmlns:xlink="http://www.w3.org/1999/xlink" x="0px" y="0px"
	 viewBox="0 0 30 30" style="enable-background:new 0 0 30 30;" xml:space="preserve">
<style type="text/css">
	.st0{fill:#FFFFFF;}
</style>
<g>
	<path class="st0" d="M23.6,18.3L22,24.6H5.7L3,13.2h14.6c-0.3-0.6-0.4-1.3-0.5-2h-9l4.9-5.9h2.1l2.1,2.7c0.2-0.7,0.5-1.5,0.8-2.1
		l-2-2.5h-4l-6.6,7.9h-5l3.7,15.3h19.4l2-8.1c-0.1,0-0.1,0-0.2,0C24.8,18.5,24.2,18.4,23.6,18.3z"/>
	<polygon class="st0" points="26.5,9.5 26.5,6.2 24.3,6.2 24.3,9.5 21.3,9.5 21.3,11.5 24.3,11.5 24.3,14.9 26.5,14.9 26.5,11.5 
		29.5,11.5 29.5,9.5 	"/>
</g>
</svg>
