<?xml version="1.0" encoding="utf-8"?>
<!-- Generator: Adobe Illustrator 23.0.5, SVG Export Plug-In . SVG Version: 6.00 Build 0)  -->
<svg version="1.1" id="Layer_1" xmlns="http://www.w3.org/2000/svg" xmlns:xlink="http://www.w3.org/1999/xlink" x="0px" y="0px"
	 viewBox="0 0 30 30" style="enable-background:new 0 0 30 30;" xml:space="preserve">
<path d="M0.1,5.5v18.9h29.7V5.5H0.1z M28.2,15.8H14c1.7-0.9,2.4-1.4,2.7-2l0,0c0,0,0,0,0,0c0,0,0,0,0-0.1l0,0c0.3-0.5,0.4-1,0.4-1.5
	c0-1.8-1.4-3.2-3.2-3.2c-1.1,0-2.1,0.5-2.7,1.4l0,0c0,0,0,0,0,0c0,0,0,0,0,0V7.2h16.9V15.8z M5.4,12.1c0-0.8,0.7-1.5,1.5-1.5
	c0.5,0,1,0.2,1.3,0.7c0.4,0.5,0.7,2,1.1,3.8c0,0,0,0-0.1,0c-2.6-1.3-3.4-1.8-3.6-2.1l-0.3,0.2l0.3-0.2C5.4,12.7,5.4,12.4,5.4,12.1z
	 M15.6,13.1l-0.3-0.2c-0.2,0.4-1,0.8-3.6,2.1c0,0,0,0-0.1,0c0.4-1.8,0.7-3.3,1.1-3.8c0.3-0.4,0.8-0.7,1.3-0.7c0.8,0,1.5,0.7,1.5,1.5
	c0,0.3-0.1,0.5-0.2,0.8L15.6,13.1z M9.6,7.2v3.1c0,0,0,0,0,0l0,0c0,0,0,0,0,0c0,0,0,0,0,0l0,0C8.9,9.4,7.9,8.9,6.9,8.9
	c-1.8,0-3.2,1.4-3.2,3.2c0,0.5,0.1,1.1,0.4,1.5l0,0c0,0,0,0,0,0c0,0,0,0,0,0.1l0,0c0.3,0.6,1,1.1,2.7,2h-5V7.2H9.6z M1.9,17.5H7
	c-0.8,0.5-1.5,0.9-2.2,1.4l1,1.4c1.1-0.8,2.2-1.5,3.4-2.1C9.3,18.1,9.5,18,9.6,18v4.8H1.9V17.5z M11.3,22.8V18
	c0.1,0.1,0.2,0.1,0.3,0.2c1.2,0.6,2.3,1.3,3.4,2.1l1-1.4c-0.7-0.5-1.5-1-2.2-1.4h14.4v5.3H11.3z"/>
</svg>
