<?xml version="1.0" encoding="utf-8"?>
<!-- Generator: Adobe Illustrator 23.0.5, SVG Export Plug-In . SVG Version: 6.00 Build 0)  -->
<svg version="1.1" id="Layer_1" xmlns="http://www.w3.org/2000/svg" xmlns:xlink="http://www.w3.org/1999/xlink" x="0px" y="0px"
	 viewBox="0 0 30 30" style="enable-background:new 0 0 30 30;" xml:space="preserve">
<path d="M15.4,8.5c0.5-0.3,0.8-0.7,1-1l0,0c0,0,0,0,0-0.1c0,0,0,0,0,0l0,0c0.3-0.5,0.4-1,0.4-1.6c0-1.9-1.5-3.4-3.4-3.4
	c-1.1,0-2.1,0.5-2.8,1.5l0,0c0,0,0,0,0,0c0,0,0,0,0,0l0,0c-0.5,0.8-0.8,1.9-1.2,4c-0.4-2.1-0.7-3.2-1.2-4l0,0c0,0,0,0,0,0
	c0,0,0,0,0,0l0,0C7.5,3,6.4,2.4,5.3,2.4c-1.9,0-3.4,1.5-3.4,3.4c0,0.6,0.1,1.1,0.4,1.6l0,0c0,0,0,0,0,0c0,0,0,0,0,0.1l0,0
	c0.2,0.4,0.5,0.7,1,1H0.1v18.9h29.7V8.5H15.4z M28.2,10.2v4H10.5v-4h1.7l0,0c0,0,0.1,0,0.1,0H28.2z M13.4,4.4c0.8,0,1.4,0.6,1.4,1.4
	c0,0.2-0.1,0.5-0.2,0.7L15,6.7l-0.5-0.2c-0.2,0.3-1.3,1-3.3,2l0,0h0c0.4-1.7,0.7-3,1-3.5C12.5,4.6,13,4.4,13.4,4.4z M4.1,6.5
	L3.7,6.7L4.1,6.5C4,6.3,3.9,6,3.9,5.8c0-0.8,0.6-1.4,1.4-1.4c0.5,0,0.9,0.2,1.1,0.6c0.3,0.5,0.6,1.8,1,3.5H6.9L7,8.3
	C5,7.3,4.3,6.8,4.1,6.5z M8.2,10.2v4H1.9v-4H8.2z M1.9,18h6.4v7.8H1.9V18z M10.5,25.7V18h17.6v7.8H10.5z"/>
</svg>
