<?xml version="1.0" encoding="utf-8"?>
<!-- Generator: Adobe Illustrator 23.0.5, SVG Export Plug-In . SVG Version: 6.00 Build 0)  -->
<svg version="1.1" id="Layer_1" xmlns="http://www.w3.org/2000/svg" xmlns:xlink="http://www.w3.org/1999/xlink" x="0px" y="0px"
	 viewBox="0 0 20 36" style="enable-background:new 0 0 20 36;" xml:space="preserve">
<path d="M17.4,25.4L17.4,25.4l-0.5-0.6c-1.4-1.6-3-2.5-4.8-2.8l0-0.1c-0.4-2-1.4-3.5-2.7-4.5l0-0.1c0.7-1.9,0.7-3.6,0-5.1
	c2-1.4,2.9-3.2,2.8-5.1C12.2,5.1,11.1,3.3,9,1.8L8.5,1.4L8,1.8C6,3.2,5,5,5.1,6.9c0,0.6,0.2,1.2,0.4,1.7c-0.6-0.2-1.3-0.4-2-0.6
	L2.8,7.9L2.5,8.6c-0.8,2.2-0.7,4.2,0.4,5.9c0.3,0.5,0.8,1,1.3,1.4c-0.6,0.1-1.3,0.2-2,0.4l-0.7,0.2l0.2,0.8c0.5,2.3,1.7,4.1,3.6,5.1
	c0.6,0.3,1.3,0.6,1.9,0.7c-0.5,0.4-1,0.8-1.4,1.3L5.2,25l0.5,0.6c1.7,1.9,3.6,2.9,5.7,2.9c0.1,0,0.2,0,0.3,0c1.7,0,3.2-0.6,4.6-1.8
	c0.6,0.9,0.7,2.1,0.1,3c-0.5,0.9-1.5,1.4-2.6,1.3l-0.1,1.7c0.1,0,0.1,0,0.2,0c1.6,0,3.1-0.8,3.9-2.1C18.7,29,18.5,26.9,17.4,25.4z
	 M8.5,3.5c1.3,1.1,2,2.3,2.1,3.6c0.1,1.2-0.5,2.3-1.7,3.3c-1.3-1.1-2-2.3-2.1-3.6C6.8,5.6,7.3,4.5,8.5,3.5z M3.9,9.9
	c1.7,0.4,2.9,1.2,3.7,2.3c0.7,1.1,0.9,2.3,0.5,3.7c-1.7-0.4-2.9-1.2-3.7-2.3C3.6,12.5,3.5,11.3,3.9,9.9z M6,20.9
	c-1.2-0.7-2-1.7-2.5-3.2c1.6-0.4,3-0.2,4.2,0.5c1.2,0.7,2,1.7,2.5,3.2C8.6,21.8,7.3,21.6,6,20.9L6,20.9z M11.4,26.8L11.4,26.8
	C10,26.7,8.7,26.1,7.5,25c1.1-1,2.3-1.5,3.7-1.4c1.4,0.1,2.7,0.6,3.9,1.8C14,26.4,12.8,26.8,11.4,26.8z"/>
</svg>
