<?xml version="1.0" encoding="utf-8"?>
<!-- Generator: Adobe Illustrator 23.0.5, SVG Export Plug-In . SVG Version: 6.00 Build 0)  -->
<svg version="1.1" id="Layer_1" xmlns="http://www.w3.org/2000/svg" xmlns:xlink="http://www.w3.org/1999/xlink" x="0px" y="0px"
	 viewBox="0 0 51 13.2" style="enable-background:new 0 0 51 13.2;" xml:space="preserve">
<style type="text/css">
	.st0{fill:#CCCCCC;}
</style>
<g>
	<g>
		<path d="M3.2,2.3c0.2,0.2,0.5,0.1,0.6-0.1l0.4-0.5c0.2-0.2,0.1-0.5-0.1-0.6C4,0.9,3.7,1,3.5,1.2L3.1,1.7C2.9,1.9,3,2.2,3.2,2.3z"
			/>
		<path d="M4,3C3.8,3.2,3.9,3.5,4.1,3.6c0.2,0.1,0.5,0.1,0.6-0.1L5,2.9c0.1-0.2,0.1-0.5-0.1-0.6C4.7,2.2,4.4,2.3,4.3,2.5L4,3z"/>
		<path d="M4.7,1.4c0.1,0.2,0.4,0.3,0.6,0.1l0.6-0.4C6.1,1,6.1,0.7,6,0.5C5.9,0.3,5.6,0.2,5.4,0.4L4.8,0.7C4.6,0.9,4.6,1.2,4.7,1.4
			L4.7,1.4z"/>
		<path d="M6.8,1.9L6.8,1.9C6.7,1.7,6.5,1.6,6.3,1.7L5.8,2C5.6,2.1,5.5,2.4,5.6,2.6S6,2.9,6.2,2.8l0.5-0.3C6.9,2.4,7,2.1,6.8,1.9z"
			/>
		<path d="M7,1.2L7.7,1C7.9,0.9,8,0.7,8,0.5C7.9,0.2,7.6,0.1,7.4,0.2L6.8,0.4C6.5,0.4,6.4,0.7,6.5,0.9C6.5,1.2,6.8,1.3,7,1.2z"/>
		<path d="M8.8,1.5h0.6c0.2,0,0.4-0.2,0.4-0.4c0-0.2-0.2-0.4-0.4-0.4H8.8C8.5,0.6,8.4,0.8,8.4,1C8.4,1.3,8.5,1.5,8.8,1.5z"/>
		<path d="M8.8,2.2c0-0.2-0.2-0.4-0.5-0.4L7.8,2C7.5,2,7.4,2.2,7.4,2.4c0,0.2,0.2,0.4,0.5,0.4l0.6-0.1C8.7,2.7,8.8,2.5,8.8,2.2z"/>
		<path d="M10.3,2.3l0.5,0.1c0.2,0.1,0.5-0.1,0.5-0.3c0.1-0.2-0.1-0.5-0.3-0.5l-0.5-0.1c-0.2-0.1-0.5,0.1-0.5,0.3
			C10,2,10.1,2.2,10.3,2.3z"/>
		<path d="M10.4,3.3c0.1-0.2-0.1-0.4-0.3-0.5L9.6,2.7C9.4,2.6,9.2,2.7,9.1,2.9v0C9,3.1,9.2,3.4,9.4,3.4l0.5,0.2
			C10.1,3.7,10.3,3.5,10.4,3.3z"/>
		<path d="M9.5,4.5L9.5,4.5C9.5,4.3,9.4,4.1,9.2,4L8.7,3.9C8.5,3.8,8.3,3.9,8.2,4.1C8.1,4.3,8.3,4.6,8.5,4.6L9,4.8
			C9.2,4.8,9.4,4.7,9.5,4.5z"/>
		<path d="M10.3,6.3c0.2-0.1,0.2-0.3,0.1-0.5L10,5.4C9.9,5.3,9.7,5.2,9.5,5.4h0C9.4,5.5,9.3,5.7,9.5,5.8l0.3,0.4
			C9.9,6.4,10.1,6.5,10.3,6.3z"/>
		<path d="M10.2,7.9l0-0.5c0-0.2-0.2-0.3-0.4-0.3c-0.2,0-0.3,0.2-0.3,0.4l0,0.5c0,0.2,0.2,0.3,0.4,0.3C10.1,8.3,10.2,8.1,10.2,7.9z"
			/>
		<path d="M12.5,3.7c0.1-0.2,0.1-0.4-0.1-0.5L12,2.9c-0.2-0.1-0.4-0.1-0.5,0.1c-0.1,0.2-0.1,0.4,0.1,0.5L12,3.8
			C12.1,3.9,12.4,3.9,12.5,3.7z"/>
		<path d="M11,4.1c-0.2-0.1-0.4-0.1-0.5,0c-0.1,0.2-0.1,0.4,0,0.5L10.9,5c0.2,0.1,0.4,0.1,0.5,0c0.1-0.2,0.1-0.4,0-0.5L11,4.1z"/>
		<path d="M12.6,5.4c0.1,0.2,0.4,0.2,0.5,0.1c0.2-0.1,0.2-0.4,0.1-0.5l-0.3-0.3c-0.1-0.2-0.4-0.2-0.5-0.1c-0.2,0.1-0.2,0.4-0.1,0.5
			L12.6,5.4z"/>
		<path d="M11.3,5.8c-0.2,0.1-0.3,0.3-0.2,0.5l0.2,0.4c0.1,0.2,0.3,0.3,0.5,0.2c0.2-0.1,0.3-0.3,0.2-0.5L11.7,6
			C11.7,5.8,11.4,5.8,11.3,5.8z"/>
		<path d="M13.4,6.9l-0.1-0.3c-0.1-0.2-0.3-0.3-0.5-0.2c-0.2,0.1-0.3,0.3-0.2,0.5l0.1,0.3c0.1,0.2,0.3,0.3,0.5,0.2h0
			C13.4,7.3,13.5,7.1,13.4,6.9z"/>
		<path d="M11.5,8.4V8c0-0.2-0.1-0.3-0.3-0.3c-0.2,0-0.3,0.1-0.3,0.3v0.4c0,0.2,0.1,0.3,0.3,0.3C11.4,8.7,11.5,8.6,11.5,8.4z"/>
		<path d="M12.6,8.2c-0.2,0-0.3,0.2-0.3,0.3l0,0.4c0,0.2,0.2,0.3,0.3,0.3c0.2,0,0.3-0.2,0.3-0.3l0-0.4C12.9,8.3,12.8,8.2,12.6,8.2z"
			/>
		<path d="M11.9,9.8c-0.2-0.1-0.4,0-0.4,0.2l-0.1,0.4c-0.1,0.2,0,0.4,0.2,0.4c0.2,0.1,0.4,0,0.4-0.2l0.1-0.4
			C12.2,10.1,12.1,9.9,11.9,9.8z"/>
		<path d="M10.4,10.1l0.2-0.4c0.1-0.2,0-0.3-0.2-0.4c-0.2-0.1-0.3,0-0.4,0.2L9.8,9.9c-0.1,0.2,0,0.3,0.2,0.4
			C10.2,10.4,10.3,10.3,10.4,10.1z"/>
		<path d="M8.6,10.5l-0.3,0.3c-0.1,0.1-0.1,0.3,0,0.4c0.1,0.1,0.3,0.1,0.4,0l0.3-0.3c0.1-0.1,0.1-0.3,0-0.4
			C9,10.3,8.8,10.3,8.6,10.5z"/>
		<path d="M9,8.7C8.8,8.6,8.6,8.6,8.5,8.8L8.3,9.1C8.1,9.3,8.2,9.5,8.3,9.6c0.2,0.1,0.4,0.1,0.5-0.1l0.2-0.3C9.2,9,9.1,8.8,9,8.7z"
			/>
		<path d="M7,10.8l-0.5,0.2c-0.2,0.1-0.3,0.2-0.2,0.4c0.1,0.2,0.2,0.3,0.4,0.2l0.5-0.2c0.2-0.1,0.3-0.2,0.2-0.4
			C7.3,10.8,7.2,10.7,7,10.8z"/>
		<path d="M7.5,9.4C7.4,9.3,7.2,9.2,7.1,9.2L6.5,9.4C6.4,9.5,6.3,9.6,6.3,9.8l0,0.1c0.1,0.2,0.2,0.3,0.4,0.2l0.5-0.2
			C7.4,9.9,7.5,9.7,7.5,9.4L7.5,9.4z"/>
		<path d="M10.7,11.2c-0.1-0.1-0.4-0.1-0.5,0.1L10,11.6c-0.1,0.1-0.1,0.4,0.1,0.5s0.4,0.1,0.5-0.1l0.2-0.3
			C10.8,11.5,10.8,11.3,10.7,11.2z"/>
		<path d="M8.6,12l-0.3,0.2c-0.2,0.1-0.2,0.3-0.1,0.5c0.1,0.2,0.3,0.2,0.5,0.1L9,12.6c0.2-0.1,0.2-0.3,0.1-0.5S8.8,11.9,8.6,12z"/>
		<path d="M6.9,12.3l-0.4,0.1c-0.2,0.1-0.3,0.2-0.2,0.4v0C6.3,13,6.5,13.1,6.7,13l0.4-0.1c0.2-0.1,0.3-0.2,0.2-0.4
			C7.3,12.3,7.1,12.2,6.9,12.3z"/>
		<path d="M5.2,12H4.7c-0.2,0-0.3,0.1-0.3,0.3c0,0.2,0.1,0.3,0.3,0.3h0.5c0.2,0,0.3-0.1,0.3-0.3C5.5,12.1,5.4,12,5.2,12z"/>
		<path d="M5.3,10.4l-0.6,0c-0.2,0-0.3,0.1-0.4,0.3c0,0.2,0.1,0.3,0.3,0.4l0.6,0c0.2,0,0.3-0.1,0.4-0.3C5.7,10.6,5.5,10.4,5.3,10.4z
			"/>
		<path d="M5.6,8.8L5.1,8.6c-0.2-0.1-0.4,0-0.5,0.2s0,0.4,0.2,0.5l0.5,0.2c0.2,0.1,0.4,0,0.5-0.2C5.8,9.1,5.7,8.8,5.6,8.8z"/>
		<path d="M4,9.4L3.5,9.1C3.3,9,3.1,9.1,3,9.2c-0.1,0.2,0,0.4,0.1,0.5L3.6,10c0.2,0.1,0.4,0,0.5-0.1C4.2,9.7,4.2,9.5,4,9.4z"/>
		<path d="M3.7,11.2L3.2,11c-0.2-0.1-0.4,0-0.4,0.2c-0.1,0.2,0,0.4,0.2,0.4l0.6,0.2c0.2,0.1,0.4,0,0.4-0.2C4,11.4,3.9,11.2,3.7,11.2
			z"/>
		<path d="M2.5,9.9L2.1,9.5C1.9,9.4,1.6,9.4,1.5,9.6C1.4,9.8,1.4,10,1.6,10.2L2,10.5c0.2,0.1,0.4,0.1,0.6-0.1
			C2.7,10.3,2.7,10,2.5,9.9z"/>
		<path d="M1.6,8.9c0.2-0.1,0.2-0.4,0.1-0.6L1.4,7.9C1.3,7.7,1,7.6,0.9,7.7C0.7,7.9,0.6,8.1,0.7,8.3l0.3,0.5C1.2,9,1.5,9.1,1.6,8.9
			L1.6,8.9z"/>
		<path d="M2.5,8.4c0.1,0.2,0.4,0.2,0.6,0.1C3.3,8.4,3.3,8.1,3.2,8L2.8,7.4C2.7,7.3,2.5,7.2,2.3,7.3C2.1,7.5,2.1,7.7,2.2,7.9
			L2.5,8.4z"/>
		<path d="M4.6,7.5L4.3,7C4.2,6.8,3.9,6.8,3.7,6.9C3.6,7,3.5,7.3,3.6,7.5L4,8c0.1,0.2,0.4,0.2,0.6,0.1S4.8,7.7,4.6,7.5z"/>
		<path d="M1.2,7.2c0.2-0.1,0.4-0.3,0.3-0.5L1.3,6C1.3,5.8,1,5.7,0.8,5.8C0.6,5.8,0.4,6.1,0.5,6.3l0.2,0.6C0.8,7.1,1,7.2,1.2,7.2z"
			/>
		<path d="M2.7,6.8c0.2,0,0.4-0.3,0.4-0.5L2.9,5.7c0-0.2-0.3-0.4-0.5-0.4C2.2,5.4,2,5.6,2.1,5.8l0.1,0.6C2.2,6.7,2.5,6.8,2.7,6.8z"
			/>
		<path d="M2.7,4.5C2.7,4.8,2.9,5,3.1,5c0.2,0,0.5-0.1,0.5-0.4l0.1-0.6c0-0.2-0.1-0.5-0.4-0.5c-0.2,0-0.5,0.1-0.5,0.4L2.7,4.5z"/>
		<path d="M4.2,4.9C4,4.9,3.8,5.1,3.8,5.4V6c0,0.2,0.2,0.4,0.4,0.4S4.6,6.2,4.6,6V5.4C4.6,5.1,4.5,4.9,4.2,4.9z"/>
		<path d="M5.7,3.6C5.5,3.4,5.3,3.5,5.2,3.7L4.8,4.2C4.7,4.4,4.7,4.7,4.9,4.8c0.2,0.1,0.4,0.1,0.6-0.1l0.4-0.5
			C6,3.9,5.9,3.7,5.7,3.6z"/>
		<path d="M7.8,3.5C7.7,3.3,7.5,3.2,7.3,3.2L6.7,3.4C6.5,3.5,6.4,3.7,6.4,3.9c0.1,0.2,0.3,0.3,0.5,0.3L7.5,4
			C7.7,3.9,7.8,3.7,7.8,3.5L7.8,3.5z"/>
		<path d="M1.3,5.4c0.2,0,0.4-0.2,0.5-0.4l0-0.7c0-0.2-0.2-0.4-0.4-0.5h0C1.2,3.8,1,4,0.9,4.3l0,0.7C0.9,5.2,1.1,5.4,1.3,5.4z"/>
		<path d="M2.1,3.7c0.2,0.1,0.5-0.1,0.6-0.3l0.2-0.6c0.1-0.2-0.1-0.5-0.3-0.6C2.3,2.2,2,2.3,2,2.5L1.8,3.2C1.7,3.4,1.8,3.7,2.1,3.7z
			"/>
	</g>
	<g>
		<path d="M19.1,4.9h1.3l0.2,0.5h0.5L20,2.7h-0.6l-1.1,2.7h0.5L19.1,4.9z M19.7,3.2l0.5,1.3h-1L19.7,3.2z"/>
		<path d="M23.1,3.4h-0.5l-0.6,1.5l-0.6-1.5h-0.5l0.8,2l-0.1,0.2c-0.1,0.1-0.1,0.2-0.3,0.2c0,0-0.1,0-0.2,0l-0.1,0.4
			c0.1,0,0.2,0,0.2,0c0.3,0,0.5-0.1,0.7-0.4L23.1,3.4z"/>
		<path d="M24.7,5.2v0.2h0.4V4.1c0-0.5-0.4-0.7-0.8-0.7c-0.3,0-0.6,0.1-0.8,0.3L23.7,4c0.2-0.2,0.4-0.3,0.6-0.3
			c0.3,0,0.5,0.1,0.5,0.4v0.3c-0.1-0.2-0.4-0.3-0.6-0.3c-0.3,0-0.7,0.2-0.7,0.6c0,0.4,0.4,0.7,0.7,0.7C24.3,5.5,24.6,5.4,24.7,5.2z
			 M23.8,4.8c0-0.2,0.2-0.4,0.4-0.4c0.2,0,0.4,0.1,0.5,0.2V5c-0.1,0.1-0.3,0.2-0.5,0.2C24,5.2,23.8,5,23.8,4.8z"/>
		<path d="M26.8,5.3L26.7,5c0,0-0.1,0.1-0.2,0.1c-0.1,0-0.2-0.1-0.2-0.2v-1h0.4V3.4h-0.4V2.9h-0.4v0.5h-0.3v0.4h0.3V5
			c0,0.3,0.2,0.5,0.5,0.5C26.6,5.5,26.7,5.4,26.8,5.3z"/>
		<path d="M27.6,4.1c0.1-0.1,0.3-0.3,0.5-0.3c0.1,0,0.1,0,0.1,0V3.4c-0.3,0-0.5,0.1-0.6,0.3V3.4h-0.4v2h0.4V4.1z"/>
		<rect x="28.7" y="3.4" width="0.4" height="2"/>
		<path d="M28.9,2.7c-0.1,0-0.3,0.1-0.3,0.3c0,0.1,0.1,0.3,0.3,0.3s0.3-0.1,0.3-0.3C29.2,2.8,29,2.7,28.9,2.7z"/>
		<path d="M30.6,3.4c-0.6,0-1,0.5-1,1c0,0.6,0.4,1,1,1c0.6,0,1-0.5,1-1C31.7,3.9,31.3,3.4,30.6,3.4z M30.6,5.1
			c-0.4,0-0.6-0.3-0.6-0.7c0-0.3,0.2-0.7,0.6-0.7c0.4,0,0.6,0.3,0.6,0.7C31.2,4.8,31,5.1,30.6,5.1z"/>
		<path d="M33.5,5.5c0.6,0,0.9-0.3,1.1-0.6l-0.4-0.2C34.1,4.9,33.8,5,33.5,5c-0.5,0-0.9-0.4-0.9-1c0-0.6,0.4-1,0.9-1
			c0.3,0,0.6,0.2,0.7,0.4l0.4-0.2c-0.2-0.3-0.5-0.6-1.1-0.6c-0.8,0-1.4,0.6-1.4,1.4C32.1,4.9,32.7,5.5,33.5,5.5z"/>
		<path d="M35.9,3.4c-0.3,0-0.6,0.1-0.8,0.3L35.2,4c0.2-0.2,0.4-0.3,0.6-0.3c0.3,0,0.5,0.1,0.5,0.4v0.3c-0.1-0.2-0.4-0.3-0.6-0.3
			c-0.3,0-0.7,0.2-0.7,0.6c0,0.4,0.4,0.7,0.7,0.7c0.3,0,0.5-0.1,0.6-0.3v0.2h0.4V4.1C36.7,3.6,36.3,3.4,35.9,3.4z M36.3,5
			c-0.1,0.1-0.3,0.2-0.5,0.2c-0.2,0-0.4-0.1-0.4-0.4c0-0.2,0.2-0.4,0.4-0.4c0.2,0,0.4,0.1,0.5,0.2V5z"/>
		<path d="M37.8,4.1c0.1-0.1,0.3-0.3,0.5-0.3c0.1,0,0.1,0,0.1,0V3.4c-0.3,0-0.5,0.1-0.6,0.3V3.4h-0.4v2h0.4V4.1z"/>
		<path d="M40.6,5.2l-0.2-0.3C40.3,5,40,5.1,39.8,5.1c-0.4,0-0.6-0.3-0.6-0.5h1.5V4.5c0-0.6-0.4-1.1-1-1.1c-0.6,0-1,0.5-1,1
			c0,0.6,0.4,1,1,1C40.1,5.5,40.4,5.4,40.6,5.2z M39.8,3.7c0.4,0,0.6,0.3,0.6,0.5h-1.1C39.2,4,39.4,3.7,39.8,3.7z"/>
		<polygon points="42.1,3.1 41.8,3.1 41.8,3.9 41.1,3.9 41.1,4.2 41.8,4.2 41.8,5 42.1,5 42.1,4.2 42.9,4.2 42.9,3.9 42.1,3.9 		"/>
		<polygon points="20.9,9.7 20.3,7.6 20,7.6 19.4,9.7 18.9,7.6 18.3,7.6 19.1,10.3 19.6,10.3 20.2,8.3 20.7,10.3 21.2,10.3 22,7.6 
			21.4,7.6 		"/>
		<path d="M23,8.3c-0.3,0-0.6,0.1-0.8,0.3l0.2,0.3c0.2-0.2,0.4-0.3,0.6-0.3c0.3,0,0.5,0.1,0.5,0.4v0.3c-0.1-0.2-0.4-0.3-0.6-0.3
			c-0.3,0-0.7,0.2-0.7,0.6c0,0.4,0.4,0.7,0.7,0.7c0.3,0,0.5-0.1,0.6-0.3v0.2h0.4V9C23.9,8.5,23.5,8.3,23,8.3z M23.4,9.9
			c-0.1,0.1-0.3,0.2-0.5,0.2c-0.2,0-0.4-0.1-0.4-0.4c0-0.2,0.2-0.4,0.4-0.4c0.2,0,0.4,0.1,0.5,0.2V9.9z"/>
		<path d="M24.9,8.6V8.4h-0.4v2h0.4V9c0.1-0.1,0.3-0.3,0.5-0.3c0.1,0,0.1,0,0.1,0V8.3C25.3,8.3,25.1,8.5,24.9,8.6z"/>
		<path d="M26.4,8.6V8.4H26v2h0.4V9c0.1-0.1,0.3-0.3,0.5-0.3c0.1,0,0.1,0,0.1,0V8.3C26.8,8.3,26.6,8.5,26.4,8.6z"/>
		<path d="M28.3,8.3c-0.3,0-0.6,0.1-0.8,0.3l0.2,0.3c0.2-0.2,0.4-0.3,0.6-0.3c0.3,0,0.5,0.1,0.5,0.4v0.3c-0.1-0.2-0.4-0.3-0.6-0.3
			c-0.3,0-0.7,0.2-0.7,0.6c0,0.4,0.4,0.7,0.7,0.7c0.3,0,0.5-0.1,0.6-0.3v0.2h0.4V9C29.2,8.5,28.8,8.3,28.3,8.3z M28.7,9.9
			c-0.1,0.1-0.3,0.2-0.5,0.2c-0.2,0-0.4-0.1-0.4-0.4c0-0.2,0.2-0.4,0.4-0.4c0.2,0,0.4,0.1,0.5,0.2V9.9z"/>
		<path d="M30.9,8.3c-0.3,0-0.6,0.2-0.7,0.3V8.4h-0.4v2h0.4V9c0.1-0.1,0.3-0.3,0.5-0.3c0.2,0,0.4,0.1,0.4,0.4v1.2h0.4V8.9
			C31.6,8.5,31.4,8.3,30.9,8.3z"/>
		<path d="M32.9,10c-0.1,0-0.2-0.1-0.2-0.2v-1h0.4V8.4h-0.4V7.8h-0.4v0.5H32v0.4h0.3v1.1c0,0.3,0.2,0.5,0.5,0.5
			c0.2,0,0.3-0.1,0.4-0.1l-0.1-0.3C33.1,10,33,10,32.9,10z"/>
		<path d="M34.4,9.8l-0.6-1.5h-0.5l0.8,2L34,10.6c-0.1,0.1-0.1,0.2-0.3,0.2c0,0-0.1,0-0.2,0l-0.1,0.4c0.1,0,0.2,0,0.2,0
			c0.3,0,0.5-0.1,0.7-0.4l1-2.3h-0.5L34.4,9.8z"/>
		<path d="M37.3,8.3c0-0.2,0.2-0.3,0.5-0.3c0.3,0,0.6,0.1,0.8,0.3l0.3-0.4c-0.3-0.2-0.6-0.4-1-0.4c-0.6,0-1,0.3-1,0.8
			c0,1,1.6,0.6,1.6,1.2c0,0.2-0.2,0.4-0.5,0.4c-0.4,0-0.7-0.2-0.9-0.4L36.7,10c0.2,0.3,0.6,0.4,1.1,0.4c0.7,0,1.1-0.4,1.1-0.9
			C38.9,8.5,37.3,8.8,37.3,8.3z"/>
		<path d="M40.3,8.3c-0.6,0-1,0.5-1,1c0,0.6,0.4,1,1,1c0.3,0,0.6-0.1,0.8-0.3l-0.2-0.3C40.8,10,40.6,10,40.4,10
			c-0.4,0-0.6-0.3-0.6-0.5h1.5V9.4C41.3,8.8,40.9,8.3,40.3,8.3z M39.7,9.2c0-0.2,0.2-0.5,0.6-0.5c0.4,0,0.6,0.3,0.6,0.5H39.7z"/>
		<path d="M42.2,8.6V8.4h-0.4v2h0.4V9c0.1-0.1,0.3-0.3,0.5-0.3c0.1,0,0.1,0,0.1,0V8.3C42.6,8.3,42.4,8.5,42.2,8.6z"/>
		<polygon points="44,9.8 43.5,8.4 43,8.4 43.8,10.3 44.3,10.3 45.1,8.4 44.6,8.4 		"/>
		<path d="M45.7,7.6c-0.1,0-0.3,0.1-0.3,0.3s0.1,0.3,0.3,0.3c0.1,0,0.3-0.1,0.3-0.3S45.8,7.6,45.7,7.6z"/>
		<rect x="45.4" y="8.4" width="0.4" height="2"/>
		<path d="M47.4,8.7c0.2,0,0.3,0.1,0.5,0.2l0.3-0.3c-0.1-0.2-0.4-0.4-0.8-0.4c-0.6,0-1,0.4-1,1s0.4,1,1,1c0.4,0,0.6-0.2,0.8-0.4
			l-0.3-0.3c-0.1,0.2-0.3,0.2-0.5,0.2c-0.4,0-0.6-0.3-0.6-0.7S47.1,8.7,47.4,8.7z"/>
		<path d="M50.5,9.4c0-0.6-0.4-1.1-1-1.1c-0.6,0-1,0.5-1,1c0,0.6,0.4,1,1,1c0.3,0,0.6-0.1,0.8-0.3l-0.2-0.3C50,10,49.8,10,49.6,10
			C49.2,10,49,9.8,49,9.5h1.5V9.4z M49,9.2c0-0.2,0.2-0.5,0.6-0.5c0.4,0,0.6,0.3,0.6,0.5H49z"/>
	</g>
	<rect x="15.5" y="1.9" class="st0" width="0.1" height="9.6"/>
</g>
</svg>
