<?xml version="1.0" encoding="utf-8"?>
<!-- Generator: Adobe Illustrator 23.0.5, SVG Export Plug-In . SVG Version: 6.00 Build 0)  -->
<svg version="1.1" id="Layer_1" xmlns="http://www.w3.org/2000/svg" xmlns:xlink="http://www.w3.org/1999/xlink" x="0px" y="0px"
	 viewBox="0 0 20 36" style="enable-background:new 0 0 20 36;" xml:space="preserve">
<path d="M17.8,16.3c-0.7-0.2-1.4-0.3-2-0.4c0.5-0.4,0.9-0.9,1.3-1.4c1.1-1.7,1.3-3.7,0.4-5.9l-0.3-0.7l-0.7,0.1
	c-0.7,0.1-1.4,0.3-2,0.6c0.2-0.6,0.3-1.1,0.4-1.7C15,5,14,3.2,12,1.8l-0.5-0.4L11,1.8C8.9,3.3,7.8,5.1,7.7,7.1
	c-0.1,1.9,0.9,3.7,2.8,5.1c-0.7,1.5-0.7,3.2,0,5.1l0,0.1c-1.4,1-2.3,2.5-2.7,4.5l0,0.1c-1.7,0.3-3.3,1.2-4.8,2.8l-0.5,0.6l0,0
	c-1.1,1.5-1.3,3.6-0.4,5.2c0.8,1.3,2.3,2.1,3.9,2.1c0.1,0,0.1,0,0.2,0L6.3,31c-1.1,0-2.1-0.5-2.6-1.3c-0.6-0.9-0.5-2.1,0.1-3
	c1.3,1.2,2.9,1.8,4.6,1.8c0.1,0,0.2,0,0.3,0c2.1-0.1,4-1.1,5.7-2.9l0.5-0.6l-0.5-0.6c-0.5-0.5-0.9-0.9-1.4-1.3
	c0.7-0.1,1.3-0.4,1.9-0.7c1.9-1,3.1-2.7,3.6-5.1l0.2-0.8L17.8,16.3z M15.6,13.6c-0.7,1.1-2,1.9-3.7,2.3c-0.4-1.4-0.2-2.6,0.5-3.7
	c0.8-1.1,2-1.9,3.7-2.3C16.5,11.3,16.4,12.5,15.6,13.6z M11.5,3.5c1.2,1,1.7,2.1,1.7,3.3c-0.1,1.3-0.7,2.5-2.1,3.6
	c-1.2-1-1.7-2.1-1.7-3.3C9.5,5.9,10.2,4.7,11.5,3.5z M8.6,26.8c-1.4,0.1-2.6-0.4-3.7-1.4c1.2-1.2,2.5-1.8,3.9-1.8
	c1.4-0.1,2.6,0.4,3.7,1.4C11.3,26.1,10,26.7,8.6,26.8z M14,20.9c-1.2,0.7-2.6,0.8-4.2,0.5c0.5-1.5,1.3-2.5,2.5-3.2
	c1.2-0.7,2.6-0.8,4.2-0.5C16,19.2,15.2,20.2,14,20.9z"/>
</svg>
