<?xml version="1.0" encoding="utf-8"?>
<!-- Generator: Adobe Illustrator 23.0.5, SVG Export Plug-In . SVG Version: 6.00 Build 0)  -->
<svg version="1.1" id="Layer_1" xmlns="http://www.w3.org/2000/svg" xmlns:xlink="http://www.w3.org/1999/xlink" x="0px" y="0px"
	 viewBox="0 0 30 30" style="enable-background:new 0 0 30 30;" xml:space="preserve">
<style type="text/css">
	.st0{fill:none;stroke:#000000;stroke-width:1.7;stroke-miterlimit:10;}
</style>
<line class="st0" x1="9" y1="25.1" x2="21.7" y2="25.1"/>
<g>
	<path d="M7.9,29.2h1.7v-9h11.1v9h1.7v-17H7.9V29.2z M20.7,14v4.6H9.6V14H20.7z"/>
	<path d="M16,3.6l2.5-2.5L17.4,0l-4.1,4.1L13,4.4L13,4.5l0,0l0,0l4.3,4.3l0.1,0.1l1.2-1.1L16,5.3c6.8,0.5,12.2,6.2,12.2,13.1
		c0,0.2,0,0.4,0,0.6l1.7,0.1c0-0.2,0-0.5,0-0.7C30,10.6,23.8,4.1,16,3.6z"/>
	<path d="M9.5,6.5L8.7,5c-5.1,2.5-8.5,7.7-8.5,13.4c0,0.2,0,0.5,0,0.7L2,19.1c0-0.2,0-0.4,0-0.6C2,13.4,4.9,8.7,9.5,6.5z"/>
</g>
</svg>
