<?xml version="1.0" encoding="utf-8"?>
<!-- Generator: Adobe Illustrator 23.0.5, SVG Export Plug-In . SVG Version: 6.00 Build 0)  -->
<svg version="1.1" id="Layer_1" xmlns="http://www.w3.org/2000/svg" xmlns:xlink="http://www.w3.org/1999/xlink" x="0px" y="0px"
	 viewBox="0 0 30 30" style="enable-background:new 0 0 30 30;" xml:space="preserve">
<g>
	<path d="M22.3,6.7l-3.8-5l-3.5,0l-3.5,0l-3.8,5H0.1v21.6h29.7V6.7H22.3z M28.2,26.6H1.9V8.4c2.2,0,4.5,0,6.7,0
		c1.3-1.6,2.5-3.3,3.8-4.9c1.7,0,3.5,0,5.2,0c1.3,1.6,2.5,3.3,3.8,4.9c2.2,0,4.5,0,6.7,0V26.6z"/>
	<path d="M15,11.2c-3.5,0-6.3,2.8-6.3,6.3c0,3.5,2.8,6.3,6.3,6.3c3.5,0,6.3-2.8,6.3-6.3C21.3,14,18.5,11.2,15,11.2z M15,22.2
		c-2.6,0-4.6-2.1-4.6-4.6s2.1-4.6,4.6-4.6s4.6,2.1,4.6,4.6S17.6,22.2,15,22.2z"/>
</g>
</svg>
