<?xml version="1.0" encoding="utf-8"?>
<!-- Generator: Adobe Illustrator 23.0.5, SVG Export Plug-In . SVG Version: 6.00 Build 0)  -->
<svg version="1.1" id="Layer_1" xmlns="http://www.w3.org/2000/svg" xmlns:xlink="http://www.w3.org/1999/xlink" x="0px" y="0px"
	 viewBox="0 0 30 30" style="enable-background:new 0 0 30 30;" xml:space="preserve">
<path d="M29.8,14.6l-3.1-1.5l-3.1-4.3l-4.5,0V5.2H0.2v17.2h4.2c0.4,1.4,1.7,2.5,3.2,2.5c1.5,0,2.8-1.1,3.2-2.5h7.5h0.8h0.8
	c0.4,1.4,1.7,2.5,3.2,2.5c1.5,0,2.8-1,3.2-2.5h3.5V14.6z M7.6,23.1c-0.9,0-1.6-0.7-1.6-1.6s0.7-1.6,1.6-1.6c0.9,0,1.6,0.7,1.6,1.6
	S8.5,23.1,7.6,23.1z M17.4,20.7h-6.7c-0.4-1.4-1.7-2.4-3.2-2.4c-1.5,0-2.8,1-3.2,2.4H1.9V6.9h15.5V20.7z M23.1,23.1
	c-0.9,0-1.6-0.7-1.6-1.6s0.7-1.6,1.6-1.6s1.6,0.7,1.6,1.6S24,23.1,23.1,23.1z M28.1,20.7h-1.8c-0.4-1.4-1.7-2.5-3.2-2.5
	c-1.5,0-2.8,1-3.2,2.4h-0.8V10.5l3.6,0l2.9,3.9l2.5,1.2V20.7z"/>
</svg>
