<?xml version="1.0" encoding="utf-8"?>
<!-- Generator: Adobe Illustrator 23.0.5, SVG Export Plug-In . SVG Version: 6.00 Build 0)  -->
<svg version="1.1" id="Layer_1" xmlns="http://www.w3.org/2000/svg" xmlns:xlink="http://www.w3.org/1999/xlink" x="0px" y="0px"
	 viewBox="0 0 30 30" style="enable-background:new 0 0 30 30;" xml:space="preserve">
<g>
	<path d="M21.1,7.3c-0.5,0-1,0.1-1.5,0.1V0.5H4.7v6.6L0.1,9l3.2,7.8l-2.8,3.1l11.1,9.9l5.9-6.6c1.1,0.5,2.2,0.8,3.5,0.8
		c4.6,0,8.3-3.7,8.3-8.4S25.7,7.3,21.1,7.3z M6.4,2.2h11.5v5.7c-0.6,0.3-1.2,0.6-1.7,1l-2.3-5.6L6.4,6.4V2.2z M2.4,9.9L13,5.6
		l1.9,4.5c-0.4,0.5-0.8,1-1.1,1.6l-3.2-2.9l-5.9,6.6L2.4,9.9z M11.6,27.4L3,19.8l7.6-8.6l2.4,2.1c-0.2,0.7-0.3,1.5-0.3,2.3
		c0,2.7,1.3,5.2,3.4,6.7L11.6,27.4z M21.1,22.3c-3.7,0-6.6-3-6.6-6.6s3-6.6,6.6-6.6s6.7,3,6.7,6.6S24.7,22.3,21.1,22.3z"/>
	<polygon points="21.9,11.9 20.2,11.9 20.2,14.8 17.3,14.8 17.3,16.5 20.2,16.5 20.2,19.4 21.9,19.4 21.9,16.5 24.8,16.5 24.8,14.8 
		21.9,14.8 	"/>
</g>
</svg>
