<?xml version="1.0" encoding="utf-8"?>
<!-- Generator: Adobe Illustrator 23.0.5, SVG Export Plug-In . SVG Version: 6.00 Build 0)  -->
<svg version="1.1" id="Layer_1" xmlns="http://www.w3.org/2000/svg" xmlns:xlink="http://www.w3.org/1999/xlink" x="0px" y="0px"
	 viewBox="0 0 30 30" style="enable-background:new 0 0 30 30;" xml:space="preserve">
<g>
	<path d="M29.7,7.2c-3.8-1.8-7.6-3.5-11.4-5.3c-3.9,1.7-7.8,3.5-11.7,5.2l0,5.5l1.7,0l0-2.6l9.1,5.2l0,9.8l-9.1-5.5v-2.2H6.6v3.1
		c4.2,2.4,8.3,4.7,12.5,7.1c3.6-2.3,7.2-4.6,10.9-6.8L29.7,7.2z M18.3,3.8l9.4,4.6l-3.9,2.2L15,5.3L18.3,3.8z M18.2,13.7L8.7,8.2
		l4.5-2.1l9,5.3L18.2,13.7z M19,25l0-9.9c3-1.6,6-3.2,9-4.9c0,3.1,0.1,6.2,0.1,9.4L19,25z"/>
	<polygon points="11.3,15.8 11.3,14.1 3.4,14.1 5,12.5 3.8,11.3 0.1,15 3.8,18.7 5,17.5 3.3,15.8 	"/>
</g>
</svg>
