<?xml version="1.0" encoding="utf-8"?>
<!-- Generator: Adobe Illustrator 23.0.5, SVG Export Plug-In . SVG Version: 6.00 Build 0)  -->
<svg version="1.1" id="Layer_1" xmlns="http://www.w3.org/2000/svg" xmlns:xlink="http://www.w3.org/1999/xlink" x="0px" y="0px"
	 viewBox="0 0 30 30" style="enable-background:new 0 0 30 30;" xml:space="preserve">
<g>
	<path d="M24.5,10.9c0.3-0.9,0.5-2.5-0.4-4.1c-0.7-1.3-1.8-1.9-2.6-2.3c-0.3-1-0.7-1.8-1.4-2.5c-1.4-1.5-3.2-1.7-3.9-1.8
		c-1.1-0.1-2.1,0.1-2.9,0.6c-1.9,0.9-2.7,2.7-3,3.5C9,7.1,7.2,11.8,5.6,17l-3.2-3.1c-0.3-0.3-0.9-0.3-1.2,0c-0.3,0.3-0.3,0.9,0,1.2
		l5.2,5l0.4-1.3C8.6,13.1,10.4,8,11.8,5c0.5-1.1,1.1-2.1,2.2-2.7c0.6-0.3,1.3-0.4,2.1-0.4c0.5,0,1.7,0.2,2.7,1.3
		c0.6,0.6,0.9,1.3,1.1,2.2L20,5.8L20.5,6C21,6.2,22,6.6,22.6,7.6c0.8,1.4,0.3,2.9,0.1,3.2l-0.2,0.6l0.5,0.4c1.2,1.1,1.8,2.6,1.4,3.6
		c-0.2,0.6-0.8,1.1-1.7,1.4c-1.3,0.4-2.8,0.3-4.1-0.5l-1.3-0.7v4.4h-2.6l0.1-3.9l-4.2,0.4c-0.5,0-0.8,0.5-0.8,0.9
		c0,0.5,0.5,0.8,0.9,0.8l2.3-0.2l-0.1,3.7h6v-3.3c1.4,0.5,2.9,0.5,4.2,0c1.3-0.5,2.3-1.3,2.7-2.4C26.6,14.5,26,12.4,24.5,10.9z"/>
	<path d="M23.6,4.1c0.9,0,1.6-0.7,1.6-1.6c0-0.9-0.7-1.6-1.6-1.6c-0.9,0-1.6,0.7-1.6,1.6C22.1,3.4,22.8,4.1,23.6,4.1z M23.6,1.2
		c0.7,0,1.3,0.6,1.3,1.3c0,0.7-0.6,1.3-1.3,1.3c-0.7,0-1.3-0.6-1.3-1.3C22.4,1.8,22.9,1.2,23.6,1.2z"/>
	<path d="M23.3,2.6h0.3l0.3,0.6h0.3l-0.4-0.6c0.2,0,0.4-0.2,0.4-0.4c0-0.3-0.2-0.5-0.5-0.5h-0.7v1.5h0.3V2.6z M23.3,1.9h0.4
		C23.8,1.9,24,2,24,2.2c0,0.1-0.1,0.2-0.3,0.2h-0.4V1.9z"/>
	<path d="M16.8,26.8c-0.2-0.1-0.4-0.2-0.7-0.2c-0.3-0.1-0.6-0.1-0.9-0.1c-0.3,0-0.5-0.1-0.7-0.1c-0.2-0.1-0.4-0.1-0.5-0.2
		c-0.1-0.1-0.2-0.2-0.2-0.3c-0.1-0.1-0.1-0.2-0.1-0.4c0-0.2,0-0.3,0.1-0.5c0.1-0.1,0.2-0.3,0.3-0.4c0.1-0.1,0.3-0.2,0.4-0.2
		c0.1-0.1,0.3-0.1,0.4-0.1h0.1c0,0,0,0,0,0h0.2c0,0,0,0,0,0h0c0,0,0.1,0,0.1,0c0,0,0.1,0,0.1,0c0,0,0.1,0,0.1,0c0,0,0.1,0,0.1,0
		c0.1,0,0.1,0,0.2,0.1c0.1,0,0.1,0,0.2,0.1l0.1,0.1c0,0,0.1,0,0.1,0c0,0,0,0,0.1,0l0.1,0c0,0,0,0,0,0.1c0,0,0,0,0,0.1l0,0
		c0,0,0,0,0,0.1c0,0,0,0.1,0,0.1l0.1,0.5h0.4v-0.3c0,0,0,0,0,0l0-0.1c0-0.1,0-0.1,0-0.2c0-0.1,0-0.1,0-0.2c0-0.1,0-0.1,0-0.2
		c0-0.1,0-0.1,0-0.2l0,0l0,0c0,0,0,0-0.1,0c0,0,0,0,0,0c0,0,0,0-0.1,0c0,0,0,0,0,0c0,0-0.1,0-0.1,0l0,0c0,0,0,0-0.1,0
		c-0.1,0-0.2-0.1-0.3-0.1c-0.1,0-0.2,0-0.3-0.1c-0.1,0-0.2,0-0.4-0.1c-0.1,0-0.3,0-0.4,0h-0.1l0,0c0,0,0,0,0,0h-0.1l0,0c0,0,0,0,0,0
		h0c-0.3,0-0.5,0.1-0.8,0.2c-0.2,0.1-0.5,0.2-0.7,0.4c-0.2,0.2-0.4,0.4-0.5,0.6c-0.1,0.2-0.2,0.5-0.2,0.8c0,0.2,0,0.4,0.1,0.6
		c0.1,0.2,0.2,0.3,0.4,0.4c0.2,0.1,0.4,0.2,0.7,0.3c0.3,0.1,0.6,0.1,1,0.2c0.2,0,0.5,0.1,0.7,0.1c0.2,0,0.4,0.1,0.5,0.2
		c0.1,0.1,0.3,0.2,0.3,0.3c0.1,0.1,0.1,0.3,0.1,0.5c0,0.2,0,0.4-0.1,0.5c-0.1,0.2-0.2,0.3-0.4,0.4c-0.2,0.1-0.4,0.2-0.5,0.2
		c-0.4,0.1-0.8,0.1-1.1,0c-0.2,0-0.3-0.1-0.5-0.1c-0.2-0.1-0.3-0.1-0.4-0.2c-0.1-0.1-0.1-0.2-0.1-0.2l-0.1-0.6l-0.4,0V29
		c0,0.1,0,0.1,0,0.2c0,0.1,0,0.1,0,0.2c0,0,0,0,0,0c0,0,0,0,0,0c0,0,0,0,0,0.1l0,0c0,0,0,0.1,0,0.1c0,0,0,0.1,0,0.1l0,0l0.1,0
		c0,0,0,0,0.1,0c0,0,0,0,0,0c0,0,0,0,0,0c0,0,0,0,0,0c0,0,0,0,0,0c0,0,0.1,0,0.1,0c0,0,0.1,0,0.2,0l0,0c0,0,0.1,0,0.1,0
		c0.1,0,0.1,0,0.2,0c0.1,0,0.3,0,0.4,0.1c0.1,0,0.3,0,0.4,0h0.1h0c0.3,0,0.7-0.1,1-0.1c0.3-0.1,0.6-0.2,0.9-0.4
		c0.3-0.2,0.5-0.4,0.7-0.7c0.1-0.3,0.2-0.6,0.2-0.9c0-0.2-0.1-0.5-0.2-0.6C17.1,27,17,26.9,16.8,26.8z"/>
	<path d="M25.6,29c-0.1,0.1-0.2,0.1-0.3,0.1c-0.1,0-0.2,0.1-0.3,0.1c-0.1,0-0.2,0.1-0.4,0.1c-0.1,0-0.3,0.1-0.4,0.1c0,0-0.1,0-0.1,0
		c0,0-0.1,0-0.1,0c0,0-0.1,0-0.1,0h-0.1c-0.5,0-0.9-0.1-1.3-0.2c-0.4-0.1-0.7-0.3-1-0.6c-0.3-0.2-0.5-0.5-0.6-0.9
		c-0.1-0.3-0.2-0.7-0.2-1.1c0-0.4,0.1-0.7,0.2-1c0.1-0.3,0.3-0.6,0.5-0.8c0.2-0.2,0.5-0.4,0.8-0.6c0.3-0.1,0.7-0.2,1.2-0.2h0.1
		c0,0,0,0,0.1,0h0.1c0,0,0,0,0.1,0l0.1,0c0,0,0.1,0,0.1,0c0,0,0.1,0,0.1,0c0,0,0.1,0,0.1,0c0,0,0.1,0,0.1,0c0.1,0,0.1,0,0.2,0
		c0.1,0,0.1,0,0.2,0c0.1,0,0.2,0.1,0.3,0.1c0.1,0,0.2,0.1,0.3,0.1c0.1,0,0.1,0.1,0.2,0.1c0,0,0,0.1,0,0.1v0.7l0.4,0l0-0.2
		c0,0,0,0,0,0c0,0,0-0.1,0-0.1c0,0,0-0.1,0-0.2c0,0,0-0.1,0-0.1c0,0,0-0.1,0-0.1c0-0.1,0-0.2,0.1-0.3c0-0.1,0-0.2,0.1-0.3l0,0l0,0
		c0,0-0.1,0-0.1,0c0,0-0.1,0-0.1,0c0,0-0.1,0-0.1,0c0,0-0.1,0-0.1,0L24.9,24c-0.1,0-0.3-0.1-0.5-0.1c-0.2,0-0.3,0-0.5-0.1
		c-0.4,0-0.9,0-1.3,0c-0.3,0-0.5,0.1-0.7,0.2c-0.2,0.1-0.5,0.2-0.7,0.3c-0.2,0.1-0.4,0.2-0.6,0.3c-0.2,0.1-0.4,0.3-0.5,0.4
		c-0.1,0.2-0.3,0.3-0.4,0.5c-0.1,0.2-0.2,0.4-0.2,0.6c-0.1,0.2-0.1,0.5-0.1,0.7c0,0.5,0.1,0.9,0.3,1.3c0.2,0.4,0.5,0.7,0.8,1
		c0.4,0.3,0.8,0.5,1.2,0.6c0.5,0.1,1,0.2,1.6,0.2c0.1,0,0.1,0,0.2,0c0.1,0,0.2,0,0.2,0c0.1,0,0.2,0,0.3,0l0,0c0.1,0,0.1,0,0.2,0
		c0,0,0.1,0,0.1,0l0,0c0,0,0.1,0,0.1,0l0,0c0,0,0.1,0,0.1,0l0,0c0,0,0.1,0,0.1,0c0.1,0,0.2-0.1,0.3-0.1c0.1,0,0.2-0.1,0.2-0.1
		l0.3-0.5L25.6,29L25.6,29z"/>
	<path d="M10.5,23.9l-4.9,0h0v0l0,0v0.4l0.5,0c0.1,0,0.1,0,0.2,0c0,0,0.1,0,0.1,0c0,0,0,0,0.1,0s0,0,0,0c0,0,0,0,0,0.1
		c0,0,0,0.1,0,0.1c0,0.1,0,0.1,0,0.2c0,0.1,0,0.1,0,0.2v3.8c0,0.1,0,0.1,0,0.2c0,0.1,0,0.1,0,0.2c0,0.1,0,0.1,0,0.1c0,0,0,0.1,0,0.1
		c0,0,0,0,0,0c0,0,0,0-0.1,0c0,0-0.1,0-0.1,0c0,0-0.1,0-0.1,0l-0.5,0v0.4l0.1,0c0.1,0,0.2,0,0.3,0c0.1,0,0.2,0,0.2,0h0.3
		c0,0,0.1,0,0.1,0h0.9c0.1,0,0.2,0,0.3,0c0.1,0,0.2,0,0.3,0c0.1,0,0.2,0,0.4,0l0.1,0v-0.4l-0.5,0c-0.1,0-0.1,0-0.1,0
		c0,0-0.1,0-0.1,0h0c0,0,0,0-0.1,0c0,0,0,0,0,0c0,0,0,0,0-0.1c0,0,0-0.1,0-0.1c0-0.1,0-0.1,0-0.2c0-0.1,0-0.1,0-0.2v-1.7
		c0.1,0,0.1,0,0.2,0c0.1,0,0.2,0,0.3,0h0.1c0,0,0.1,0,0.2,0h0.3c0.1,0,0.3,0,0.4,0c0.1,0,0.2,0,0.3,0c0.1,0,0.1,0,0.2,0
		c0.1,0,0.1,0,0.1,0l0,0c0,0,0,0,0,0c0,0,0,0,0,0c0,0,0,0,0,0.1l0.1,0.5l0.4,0v-0.1l0,0c0,0,0,0,0,0l0-0.2c0,0,0,0,0-0.1l0-0.2
		c0,0,0,0,0-0.1v-0.5c0,0,0-0.1,0-0.2c0-0.1,0-0.1,0-0.2v-0.2c0,0,0,0,0,0l0-0.2H9.7l-0.1,0.5c0,0,0,0.1,0,0.1c0,0,0,0,0,0.1
		c0,0,0,0,0,0c0,0,0,0,0,0c0,0,0,0-0.1,0l0,0c0,0-0.1,0-0.2,0c-0.1,0-0.2,0-0.3,0c-0.1,0-0.2,0-0.4,0H8.3c-0.1,0-0.2,0-0.3,0
		c-0.1,0-0.2,0-0.3,0c-0.1,0-0.1,0-0.2,0v-2.1c0,0,0,0,0,0c0,0,0,0,0.1,0c0,0,0,0,0.1,0c0,0,0,0,0.1,0l0,0c0,0,0.1,0,0.1,0
		c0,0,0.1,0,0.1,0h0.1c0,0,0,0,0.1,0h0.3c0,0,0.1,0,0.1,0h0.1c0.1,0,0.2,0,0.2,0c0.1,0,0.2,0,0.3,0c0,0,0.1,0,0.1,0c0,0,0.1,0,0.1,0
		c0,0,0.1,0,0.1,0l0.1,0c0.1,0,0.1,0,0.2,0c0.1,0,0.1,0,0.2,0c0,0,0,0,0,0c0,0,0,0,0,0c0,0,0,0,0,0.1c0,0,0,0,0,0.1v0.6l0.4,0v-0.3
		c0,0,0-0.1,0-0.1c0,0,0-0.1,0-0.1c0,0,0-0.1,0-0.1c0,0,0-0.1,0-0.1c0,0,0-0.1,0-0.1c0,0,0-0.1,0-0.1c0-0.1,0-0.1,0-0.2
		c0-0.1,0-0.1,0.1-0.2L10.5,23.9L10.5,23.9L10.5,23.9z"/>
</g>
</svg>
