<?xml version="1.0" encoding="utf-8"?>
<!-- Generator: Adobe Illustrator 23.0.5, SVG Export Plug-In . SVG Version: 6.00 Build 0)  -->
<svg version="1.1" id="Layer_1" xmlns="http://www.w3.org/2000/svg" xmlns:xlink="http://www.w3.org/1999/xlink" x="0px" y="0px"
	 viewBox="0 0 30 30" style="enable-background:new 0 0 30 30;" xml:space="preserve">
<path d="M0.1,6.6v18.9h29.7V6.6H0.1z M28.2,16.8H14.5c1.7-0.9,2.4-1.4,2.7-2l0,0c0,0,0,0,0,0c0,0,0,0,0-0.1l0,0
	c0.3-0.5,0.4-1,0.4-1.5c0-1.8-1.4-3.2-3.2-3.2c-1.1,0-2.1,0.5-2.7,1.4l0,0c0,0,0,0,0,0c0,0,0,0,0,0l0,0c-0.2,0.3-0.3,0.6-0.5,0.9v-4
	h16.9V16.8z M4.8,13.2c0-0.8,0.7-1.5,1.5-1.5c0.5,0,1,0.2,1.3,0.7l0,0c0.4,0.5,0.7,2,1.1,3.8c0,0,0,0-0.1,0C6,14.8,5.2,14.3,5,14
	l-0.3,0.2L5,13.9C4.9,13.7,4.8,13.4,4.8,13.2z M13.2,12.3c0.3-0.4,0.8-0.7,1.3-0.7c0.8,0,1.5,0.7,1.5,1.5c0,0.3-0.1,0.5-0.2,0.8
	l0.3,0.2L15.7,14c-0.2,0.4-1,0.8-3.6,2.1c0,0,0,0-0.1,0C12.5,14.3,12.8,12.8,13.2,12.3z M9.6,8.3v4.4c-0.2-0.6-0.4-1-0.6-1.3l0,0
	c0,0,0,0,0,0c0,0,0,0,0,0l0,0c-0.6-0.9-1.6-1.4-2.7-1.4c-1.8,0-3.2,1.4-3.2,3.2c0,0.5,0.1,1.1,0.4,1.5l0,0c0,0,0,0,0,0c0,0,0,0,0,0
	l0,0c0.3,0.6,1,1.1,2.7,2H1.9V8.3H9.6z M1.9,18.5h5.7C6.7,19,6,19.4,5.3,19.9l1,1.4c1-0.7,2.2-1.4,3.3-2v4.5H1.9V18.5z M11.3,23.8
	v-4.5c1.1,0.6,2.2,1.3,3.2,2l1-1.4c-0.7-0.5-1.5-1-2.2-1.4h14.9v5.3H11.3z"/>
</svg>
