<?xml version="1.0" encoding="utf-8"?>
<!-- Generator: Adobe Illustrator 23.0.5, SVG Export Plug-In . SVG Version: 6.00 Build 0)  -->
<svg version="1.1" id="Layer_1" xmlns="http://www.w3.org/2000/svg" xmlns:xlink="http://www.w3.org/1999/xlink" x="0px" y="0px"
	 viewBox="0 0 25 25" style="enable-background:new 0 0 25 25;" xml:space="preserve">
<style type="text/css">
	.st0{fill:#FFFFFF;}
</style>
<g>
	<path class="st0" d="M3.7,4.3c-2.1,2.3-3.3,5.2-3.3,8.3c0,3,1.1,5.9,3.1,8.1l0.9-0.8c-1.8-2-2.8-4.6-2.8-7.3c0-2.8,1.1-5.5,3-7.5
		L3.7,4.3z"/>
	<path class="st0" d="M21.3,4.3l-0.9,0.8c1.9,2,3,4.7,3,7.5c0,2.7-1,5.3-2.8,7.3l0.9,0.8c2-2.2,3.1-5.1,3.1-8.1
		C24.6,9.5,23.4,6.5,21.3,4.3z"/>
	<path class="st0" d="M8,8.5c-1,1.1-1.6,2.6-1.6,4.1c0,1.4,0.5,2.7,1.3,3.8l0.9-0.7c-0.7-0.9-1.1-1.9-1.1-3c0-1.2,0.5-2.4,1.3-3.3
		L8,8.5z"/>
	<path class="st0" d="M16.1,9.3c0.8,0.9,1.3,2.1,1.3,3.3c0,1.1-0.4,2.2-1.1,3l0.9,0.7c0.9-1.1,1.3-2.4,1.3-3.8c0-1.5-0.6-3-1.6-4.1
		L16.1,9.3z"/>
	<circle class="st0" cx="12.7" cy="12.5" r="1.6"/>
</g>
</svg>
