<svg xmlns="http://www.w3.org/2000/svg" xml:space="preserve" style="enable-background:new 0 0 30 30" viewBox="0 0 30 30"><path d="M8 9.6 4.4 5.1C2 7.8.5 11.2.5 15c0 2.6.7 5.1 1.9 7.3L7 18.6c-.4-1.2-.7-2.3-.7-3.6-.1-2 .6-3.9 1.7-5.4z" style="fill:#fbbc05"/><path d="M4.4 5.1 8 9.6c1.6-2 4.1-3.3 7-3.3 2 0 3.9.7 5.4 1.7l4.5-3.6C22.3 1.9 18.8.5 15 .5 10.8.5 7 2.2 4.4 5.1z" style="fill:#ea4335"/><path d="M19.1 22.8c-1.2.6-2.6 1-4.1 1-3.6 0-6.7-2.2-8-5.2l-4.5 3.6c2.5 4.4 7.2 7.3 12.6 7.3 2.9 0 5.5-.9 7.7-2.2l-3.7-4.5z" style="fill:#34a853"/><path d="M29.2 12.1H15v5.8h8.4c-.7 2.2-2.3 3.9-4.4 4.9l3.6 4.5c3.3-2 5.7-5.4 6.5-9.4.1-.9.3-1.9.3-2.9s0-1.9-.2-2.9z" style="fill:#4285f4"/></svg>