<?xml version="1.0" encoding="utf-8"?>
<!-- Generator: Adobe Illustrator 23.0.5, SVG Export Plug-In . SVG Version: 6.00 Build 0)  -->
<svg version="1.1" id="Layer_1" xmlns="http://www.w3.org/2000/svg" xmlns:xlink="http://www.w3.org/1999/xlink" x="0px" y="0px"
	 viewBox="0 0 30 30" style="enable-background:new 0 0 30 30;" xml:space="preserve">
<style type="text/css">
	.st0{fill:#EFEFEF;stroke:#EFEFEF;stroke-linecap:round;stroke-linejoin:round;stroke-miterlimit:10;}
	.st1{stroke:#000000;stroke-linecap:round;stroke-linejoin:round;stroke-miterlimit:10;}
	.st2{fill:#EFEFEF;}
</style>
<path class="st0" d="M-205.4-53.1c7.7,14.6,14.4,29.3,22,43.9c16.3,3,32.6,6.1,49,9.1c-11.7,11.9-23.4,23.7-35,35.6
	c2.3,16.5,4.7,32.9,7,49.4c-14.3-6.3-28.7-12.7-43-19"/>
<path class="st1" d="M-250.8,65.9c-15.3,7-30.7,14-46,21c1.7-17.3,3.3-34.7,5-52c-11.3-12-22.7-24-34-36c16.7-2.9,33.5-5.8,50.2-8.7
	c7.9-14.4,15.9-28.9,23.8-43.3"/>
<g>
	<path class="st2" d="M15.4,25l7.9,3.5c0.2,0.1,0.4,0.1,0.6-0.1c0.2-0.1,0.3-0.3,0.2-0.6l-1.3-9.1l6.5-6.6c0.2-0.2,0.2-0.4,0.1-0.6
		c-0.1-0.2-0.2-0.4-0.5-0.4l-9-1.7l-4.2-8.1c-0.1-0.2-0.3-0.3-0.5-0.3"/>
	<path d="M15.2,1.1c-0.2,0-0.4,0.1-0.5,0.3l-4.4,8L1,11c-0.2,0-0.4,0.2-0.5,0.4c-0.1,0.2,0,0.4,0.1,0.6l6.3,6.7L6,28.3
		c0,0.2,0.1,0.4,0.3,0.5c0.1,0.1,0.2,0.1,0.4,0.1c0.1,0,0.2,0,0.3-0.1l8.5-3.9"/>
</g>
</svg>
