<?xml version="1.0" encoding="utf-8"?>
<!-- Generator: Adobe Illustrator 23.0.5, SVG Export Plug-In . SVG Version: 6.00 Build 0)  -->
<svg version="1.1" id="Layer_1" xmlns="http://www.w3.org/2000/svg" xmlns:xlink="http://www.w3.org/1999/xlink" x="0px" y="0px"
	 viewBox="0 0 25 25" style="enable-background:new 0 0 25 25;" xml:space="preserve">
<path d="M14.9,5.1h3.4l1.2-1.9l-12.7,0l0,0L5.5,5.1H9l0,0c1.8,0.1,3.3,0.8,3.8,2c0,0,0,0,0,0.1l-6.1,0l0,0L5.5,9h7.6
	c0,0.4-0.1,1-0.4,1.5c-0.5,1.1-2.5,2.1-5.2,2.1c-0.4,0-0.9,0-1.3-0.1l0,0v1.8l7.5,8.9l0,0l3.2,0l0,0L9.4,14c0.4,0,0.9-0.1,1.3-0.2
	c0.9-0.2,2.3-0.5,3.6-1.6c0.6-0.6,1.1-1.3,1.5-2.2c0.1-0.3,0.2-0.7,0.2-1h2.3l1.2-1.9l-3.7,0C15.7,6.2,15.3,5.5,14.9,5.1z"/>
</svg>
