<?xml version="1.0" encoding="utf-8"?>
<!-- Generator: Adobe Illustrator 23.0.5, SVG Export Plug-In . SVG Version: 6.00 Build 0)  -->
<svg version="1.1" id="Layer_1" xmlns="http://www.w3.org/2000/svg" xmlns:xlink="http://www.w3.org/1999/xlink" x="0px" y="0px"
	 viewBox="0 0 25 25" style="enable-background:new 0 0 25 25;" xml:space="preserve">
<style type="text/css">
	.st0{fill:#FFFFFF;}
</style>
<g>
	<path class="st0" d="M17.4,0.9H7.6c-3.7,0-6.7,3-6.7,6.7v9.8c0,3.7,3,6.7,6.7,6.7h9.8c3.7,0,6.7-3,6.7-6.7V7.6
		C24.1,3.9,21.1,0.9,17.4,0.9z M17.4,22.4H7.6c-2.8,0-5-2.2-5-5V7.6c0-2.8,2.2-5,5-5h9.8c2.8,0,5,2.2,5,5v9.8
		C22.4,20.2,20.2,22.4,17.4,22.4z"/>
	<path class="st0" d="M12.5,6.7c-3.2,0-5.8,2.6-5.8,5.8c0,3.2,2.6,5.8,5.8,5.8s5.8-2.6,5.8-5.8C18.3,9.3,15.7,6.7,12.5,6.7z
		 M12.5,8.4c2.3,0,4.1,1.9,4.1,4.1c0,2.3-1.9,4.1-4.1,4.1s-4.1-1.9-4.1-4.1C8.4,10.2,10.2,8.4,12.5,8.4z"/>
	<path class="st0" d="M18.7,4.9c-0.8,0-1.5,0.7-1.5,1.4c0,0.8,0.7,1.5,1.5,1.5s1.5-0.7,1.5-1.5C20.2,5.5,19.5,4.9,18.7,4.9z"/>
</g>
</svg>
