<?xml version="1.0" encoding="utf-8"?>
<!-- Generator: Adobe Illustrator 23.0.5, SVG Export Plug-In . SVG Version: 6.00 Build 0)  -->
<svg version="1.1" id="Layer_1" xmlns="http://www.w3.org/2000/svg" xmlns:xlink="http://www.w3.org/1999/xlink" x="0px" y="0px"
	 viewBox="0 0 30 30" style="enable-background:new 0 0 30 30;" xml:space="preserve">
<g>
	<path d="M16,15.4l0.1-1.7c-1.4,0-2.8,0-4.2,0c-1.5,0.1-2.1,0.1-2.5,0.2c-1.8,0.2-3.3,0.9-4.5,1.9c-1.9,1.7-3,4.5-3,8v4.1h1.7v-4.1
		c0-3,0.9-5.4,2.4-6.7c0.9-0.8,2.2-1.3,3.6-1.5l0.1,0c0.3,0,0.8-0.1,2.2-0.2C13.4,15.3,14.7,15.3,16,15.4z"/>
	<path d="M14.3,10.8c2.9,0,5.3-2.4,5.3-5.3s-2.4-5.3-5.3-5.3C11.4,0.3,9,2.6,9,5.5S11.4,10.8,14.3,10.8z M14.3,2
		c2,0,3.6,1.6,3.6,3.6c0,2-1.6,3.6-3.6,3.6c-2,0-3.6-1.6-3.6-3.6C10.7,3.6,12.3,2,14.3,2z"/>
	<path d="M23.9,11.8L10.2,25.5l4.5,4.5l13.7-13.7L23.9,11.8z M12.6,25.5l1.1-1.1l1.4,1.4l0.8-0.8l-1.4-1.4l0.7-0.7l1.9,1.9L18,24
		l-1.9-1.9l0.6-0.6l1.4,1.4l0.8-0.8l-1.4-1.4l1.1-1.1l1.9,1.9l0.9-0.9l-1.9-1.9l1-1l1.4,1.4l0.8-0.8l-1.4-1.4l0.7-0.7l1.4,1.4
		l0.8-0.8l-1.4-1.4l1.1-1.1l2.1,2.1L14.7,27.7L12.6,25.5z"/>
</g>
</svg>
