<?xml version="1.0" encoding="utf-8"?>
<!-- Generator: Adobe Illustrator 23.0.5, SVG Export Plug-In . SVG Version: 6.00 Build 0)  -->
<svg version="1.1" id="Layer_1" xmlns="http://www.w3.org/2000/svg" xmlns:xlink="http://www.w3.org/1999/xlink" x="0px" y="0px"
	 viewBox="0 0 25 25" style="enable-background:new 0 0 25 25;" xml:space="preserve">
<style type="text/css">
	.st0{fill:#EE1C4E;}
</style>
<g>
	<path d="M3.6,2.7c-2.2,2.3-3.4,5.3-3.4,8.4c0,3,1.1,5.9,3.1,8.2l1.1-1c-1.8-2-2.8-4.5-2.8-7.2c0-2.8,1.1-5.4,3-7.4L3.6,2.7z"/>
	<path d="M21.4,2.6l-1.1,1c1.9,2,3,4.6,3,7.4c0,2.7-1,5.3-2.8,7.2l1.1,1c2.1-2.3,3.2-5.2,3.2-8.2C24.7,7.9,23.6,4.9,21.4,2.6z"/>
	<path d="M7.9,6.9c-1.1,1.2-1.7,2.7-1.7,4.2c0,1.4,0.5,2.8,1.3,3.9l1.2-0.9c-0.7-0.8-1-1.9-1-2.9c0-1.2,0.4-2.3,1.3-3.2L7.9,6.9z"/>
	<path d="M16,7.9c0.8,0.9,1.3,2,1.3,3.2c0,1.1-0.4,2.1-1,2.9l1.2,0.9c0.9-1.1,1.3-2.5,1.3-3.9c0-1.6-0.6-3.1-1.7-4.2L16,7.9z"/>
	<path class="st0" d="M12.7,9.2c-1,0-1.8,0.8-1.8,1.8s0.8,1.8,1.8,1.8s1.7-0.8,1.7-1.8S13.7,9.2,12.7,9.2z"/>
</g>
</svg>
