<?xml version="1.0" encoding="utf-8"?>
<!-- Generator: Adobe Illustrator 23.0.5, SVG Export Plug-In . SVG Version: 6.00 Build 0)  -->
<svg version="1.1" id="Layer_1" xmlns="http://www.w3.org/2000/svg" xmlns:xlink="http://www.w3.org/1999/xlink" x="0px" y="0px"
	 viewBox="0 0 30 30" style="enable-background:new 0 0 30 30;" xml:space="preserve">
<g>
	<path d="M22.4,3.8c-1.9-2.3-4.7-3.6-7.6-3.6c-2.8,0-5.7,1.4-7.6,3.7c-2,2.5-2.6,5.7-1.9,9.2c2,8.9,8.6,15.7,8.9,16l0.6,0.6l0.6-0.6
		c0.3-0.3,7.5-7.7,9.1-16.2C25.3,8.5,23.8,5.5,22.4,3.8z M22.8,12.6c-1.2,6.5-6.2,12.6-8,14.6c-1.7-1.9-6.3-7.7-7.8-14.5
		C6.2,8.9,7.4,6.4,8.5,5c1.5-1.9,3.9-3.1,6.3-3.1c2.3,0,4.7,1.2,6.3,3C22.2,6.3,23.5,8.8,22.8,12.6z"/>
	<path d="M14.9,7.4c-1.4,0-2.5,1.1-2.5,2.5s1.1,2.5,2.5,2.5s2.5-1.1,2.5-2.5S16.3,7.4,14.9,7.4z"/>
</g>
</svg>
