<?xml version="1.0" encoding="utf-8"?>
<!-- Generator: Adobe Illustrator 23.0.5, SVG Export Plug-In . SVG Version: 6.00 Build 0)  -->
<svg version="1.1" id="Layer_1" xmlns="http://www.w3.org/2000/svg" xmlns:xlink="http://www.w3.org/1999/xlink" x="0px" y="0px"
	 viewBox="0 0 30 30" style="enable-background:new 0 0 30 30;" xml:space="preserve">
<g>
	<path d="M20.7,21.3c0.5,0.9,0.7,1.9,0.7,2.8v0.3h1.5v-0.3c0-1.2-0.3-2.5-0.9-3.6L20.7,21.3z"/>
	<path d="M12.2,13.7c3.3,0,6-2.7,6-6s-2.7-6-6-6s-6,2.7-6,6S8.9,13.7,12.2,13.7z M12.2,3.3c2.5,0,4.5,2,4.5,4.4s-2,4.4-4.5,4.4
		s-4.4-2-4.4-4.4S9.8,3.3,12.2,3.3z"/>
	<path d="M29,11.2c-0.2-0.3-0.5-0.6-0.7-0.8l-1.7,1.8h-1.7v-1.8l1.8-1.7C26.4,8.5,26.2,8.3,26,8c-0.4-0.2-1.1-0.4-2-0.5
		c-2.3,0-3.9,1.6-4.1,1.8c-0.2,0.2-1.4,1.6-1.4,3.7c0,0.5,0.1,1,0.2,1.3c0.1,0.3,0.2,0.6,0.3,0.8c-3.1,3.1-6.1,6.1-9.2,9.2l3.1,3.1
		l9.2-9.2c0.3,0.1,0.6,0.2,1,0.3c0,0,0.5,0.1,1,0.1c0.6,0,2-0.2,3.3-1.2c0.5-0.4,2.4-1.9,2.3-4.3C29.5,12.3,29.2,11.6,29,11.2z
		 M24,17.1c-0.6,0-1.1-0.1-1.6-0.4c-0.2-0.1-0.4-0.3-0.6-0.4l-8.9,8.9L12,24.3l9-9c-0.2-0.2-0.4-0.4-0.7-0.7
		c-0.1-0.2-0.2-0.5-0.3-0.9c0,0-0.1-0.3,0-0.7c0.1-1.3,0.9-2.3,0.9-2.3c0.2-0.2,1.3-1.6,3.1-1.7l-0.7,0.6v3.9h3.9l0.7-0.8
		c0,0.1,0,0.1,0,0.2C28,15.3,26.2,17.1,24,17.1z"/>
	<path d="M16.2,17.5l0.4-1.5c-0.7-0.2-1.4-0.3-2.1-0.3H8.1c-4.2,0-7.6,3.4-7.6,7.6l0,0.2l-0.1,4.7l1.5,0l0.1-4.8v-0.3
		c0-3.3,2.7-6,6-6h6.3C15.1,17.2,15.6,17.3,16.2,17.5z"/>
</g>
</svg>
