<?xml version="1.0" encoding="utf-8"?>
<!-- Generator: Adobe Illustrator 23.0.5, SVG Export Plug-In . SVG Version: 6.00 Build 0)  -->
<svg version="1.1" id="Layer_1" xmlns="http://www.w3.org/2000/svg" xmlns:xlink="http://www.w3.org/1999/xlink" x="0px" y="0px"
	 viewBox="0 0 30 30" style="enable-background:new 0 0 30 30;" xml:space="preserve">
<g>
	<path d="M20.2,18.5V13h0c-0.1-5.5-4.5-9.9-10-9.9c-5.5,0-10,4.5-10,10c0,2.4,0.9,4.8,2.5,6.6V24h15.9h1.8h7.8v2.1h1.7V24v-1.4v-4.1
		H20.2z M4.3,22.3v-3.1c-0.1-0.1-0.1-0.2-0.2-0.3c-1.5-1.6-2.3-3.6-2.3-5.7c0-4.6,3.7-8.3,8.3-8.3s8.3,3.7,8.3,8.3
		c0,0.2,0,0.3,0,0.5l0,0c0,2.2,0.1,4.4,0.1,6.6h2.5v1.2h1.7v-1.2h1.5v1.2h1.7v-1.2h2.1v2.1h-8.7h-1H4.3z"/>
	<path d="M9.9,7c-3,0-5.4,2.4-5.4,5.4s2.4,5.4,5.4,5.4s5.4-2.4,5.4-5.4S12.9,7,9.9,7z M9.9,16.1c-2,0-3.7-1.6-3.7-3.7
		c0-2,1.6-3.7,3.7-3.7c2,0,3.7,1.6,3.7,3.7C13.6,14.4,11.9,16.1,9.9,16.1z"/>
</g>
</svg>
