<?xml version="1.0" encoding="utf-8"?>
<!-- Generator: Adobe Illustrator 23.0.5, SVG Export Plug-In . SVG Version: 6.00 Build 0)  -->
<svg version="1.1" id="Layer_1" xmlns="http://www.w3.org/2000/svg" xmlns:xlink="http://www.w3.org/1999/xlink" x="0px" y="0px"
	 viewBox="0 0 30 30" style="enable-background:new 0 0 30 30;" xml:space="preserve">
<style type="text/css">
	.st0{stroke:#000000;stroke-width:1.7;stroke-miterlimit:10;}
</style>
<path class="st0" d="M35.8,7.5"/>
<g>
	<path d="M12.5,12.4H9.4V7H0.1v15.7h9.2v-4.8h3.1v11h1.7v-28h-1.7V12.4z M8,16.2c-0.1,0.2-0.2,0.4-0.3,0.6V21H1.9V8.7h5.8v4.8
		c0.1,0.2,0.2,0.4,0.3,0.6h4.5v2.1H8z"/>
	<rect x="17.9" y="10.9" transform="matrix(0.9615 -0.2747 0.2747 0.9615 -3.3568 5.7261)" width="1.7" height="7.8"/>
	<rect x="23.3" y="10.9" transform="matrix(0.9615 -0.2747 0.2747 0.9615 -3.1497 7.2051)" width="1.7" height="7.8"/>
	<rect x="27.3" y="12.3" transform="matrix(0.9488 -0.3159 0.3159 0.9488 -3.2474 9.6659)" width="1.7" height="5.1"/>
</g>
</svg>
