<?xml version="1.0" encoding="utf-8"?>
<!-- Generator: Adobe Illustrator 23.0.5, SVG Export Plug-In . SVG Version: 6.00 Build 0)  -->
<svg version="1.1" id="Layer_1" xmlns="http://www.w3.org/2000/svg" xmlns:xlink="http://www.w3.org/1999/xlink" x="0px" y="0px"
	 viewBox="0 0 30 30" style="enable-background:new 0 0 30 30;" xml:space="preserve" fill="#000000"> 

	<g>
		<path d="M14.3,0.5l-12,1.9L0.3,14.7l15.5,15.1L30,15.9L14.3,0.5z M15.8,27.4L2.2,14.1L3.8,3.9l9.9-1.6l13.9,13.6L15.8,27.4z"/>
		<rect x="13.5" y="8.3" transform="matrix(1 -9.822709e-03 9.822709e-03 1 -0.1385 0.1417)" width="1.7" height="11.7"/>
		<path d="M9.4,12.6c-0.8,0-1.5,0.7-1.5,1.5c0,0.8,0.7,1.5,1.5,1.5c0.8,0,1.5-0.7,1.5-1.5C10.9,13.3,10.2,12.6,9.4,12.6z"/>
		<path d="M19.1,12.6c-0.8,0-1.5,0.7-1.5,1.5c0,0.8,0.7,1.5,1.5,1.5c0.8,0,1.5-0.7,1.5-1.5C20.6,13.3,19.9,12.6,19.1,12.6z"/>
	</g>
</svg>



