<?xml version="1.0" encoding="utf-8"?>
<!-- Generator: Adobe Illustrator 23.0.5, SVG Export Plug-In . SVG Version: 6.00 Build 0)  -->
<svg version="1.1" id="Layer_1" xmlns="http://www.w3.org/2000/svg" xmlns:xlink="http://www.w3.org/1999/xlink" x="0px" y="0px"
	 viewBox="0 0 30 30" style="enable-background:new 0 0 30 30;" xml:space="preserve">
<g>
	<path d="M16.6,17.7H9.4c-5.1,0-9.3,4.2-9.3,9.3v0.3h1.7v-0.3c0-4.2,3.4-7.6,7.6-7.6h7.2V17.7z"/>
	<path d="M13.3,15c4,0,7.3-3.3,7.3-7.3s-3.3-7.3-7.3-7.3S6,3.6,6,7.7S9.3,15,13.3,15z M13.3,2C16.4,2,19,4.6,19,7.7
		s-2.5,5.6-5.6,5.6s-5.6-2.5-5.6-5.6S10.2,2,13.3,2z"/>
	<path d="M27,21.3l-3.6-4.5h-2.6l-3.8,4.5h-2.9l2.3,7.2h11l2.3-7.2H27z M19.3,21.3l2.4-2.8h0.9l2.2,2.8H19.3z"/>
</g>
</svg>
