<?xml version="1.0" encoding="utf-8"?>
<!-- Generator: Adobe Illustrator 23.0.5, SVG Export Plug-In . SVG Version: 6.00 Build 0)  -->
<svg version="1.1" id="Layer_1" xmlns="http://www.w3.org/2000/svg" xmlns:xlink="http://www.w3.org/1999/xlink" x="0px" y="0px"
	 viewBox="0 0 30 30" style="enable-background:new 0 0 30 30;" xml:space="preserve">
<g>
	<path d="M19.4,19.4h-8.8C5,19.4,0.4,24,0.4,29.6V30h1.7v-0.4c0-4.7,3.8-8.5,8.5-8.5h8.8c4.7,0,8.5,3.8,8.5,8.5V30h1.7v-0.4
		C29.6,24,25.1,19.4,19.4,19.4z"/>
	<path d="M15,16.2c4.4,0,8.1-3.6,8.1-8.1S19.5,0.1,15,0.1S7,3.7,7,8.2S10.6,16.2,15,16.2z M15,1.8c3.5,0,6.4,2.9,6.4,6.4
		s-2.9,6.4-6.4,6.4s-6.4-2.9-6.4-6.4S11.5,1.8,15,1.8z"/>
</g>
</svg>
