<?xml version="1.0" encoding="utf-8"?>
<!-- Generator: Adobe Illustrator 23.0.5, SVG Export Plug-In . SVG Version: 6.00 Build 0)  -->
<svg version="1.1" id="Layer_1" xmlns="http://www.w3.org/2000/svg" xmlns:xlink="http://www.w3.org/1999/xlink" x="0px" y="0px"
	 viewBox="0 0 30 30" style="enable-background:new 0 0 30 30;" xml:space="preserve">
<style type="text/css">
	.st0{fill:#EFEFEF;stroke:#EFEFEF;stroke-linecap:round;stroke-linejoin:round;stroke-miterlimit:10;}
	.st1{stroke:#000000;stroke-linecap:round;stroke-linejoin:round;stroke-miterlimit:10;}
</style>
<path class="st0" d="M-205.4-53.1c7.7,14.6,14.4,29.3,22,43.9c16.3,3,32.6,6.1,49,9.1c-11.7,11.9-23.4,23.7-35,35.6
	c2.3,16.5,4.7,32.9,7,49.4c-14.3-6.3-28.7-12.7-43-19"/>
<path class="st1" d="M-250.8,65.9c-15.3,7-30.7,14-46,21c1.7-17.3,3.3-34.7,5-52c-11.3-12-22.7-24-34-36c16.7-2.9,33.5-5.8,50.2-8.7
	c7.9-14.4,15.9-28.9,23.8-43.3"/>
<g>
	<path d="M24.7,10.7c0-5.6-4.6-10.2-10.2-10.2C8.9,0.5,4.4,5.1,4.4,10.7c0,3.1,1.4,5.9,3.6,7.8v10.9h13.1V18.5
		C23.3,16.6,24.7,13.8,24.7,10.7z M6.1,10.7c0-4.7,3.8-8.5,8.5-8.5c4.7,0,8.5,3.8,8.5,8.5s-3.8,8.5-8.5,8.5
		C9.9,19.2,6.1,15.4,6.1,10.7z M19.4,27.6H9.7v-8c1.4,0.8,3.1,1.2,4.9,1.2c1.8,0,3.4-0.4,4.8-1.2V27.6z"/>
	<path d="M12.2,11.4l-0.3,2.8c0,0.1,0,0.1,0.1,0.2c0,0,0.1,0,0.1,0c0,0,0,0,0.1,0l2.5-1.1l2.3,1c0.1,0,0.1,0,0.2,0
		c0.1,0,0.1-0.1,0.1-0.2l-0.4-2.7l1.9-1.9c0,0,0.1-0.1,0-0.2c0-0.1-0.1-0.1-0.1-0.1L16,8.8l-1.2-2.4c0-0.1-0.1-0.1-0.2-0.1
		c-0.1,0-0.1,0-0.2,0.1l-1.3,2.3l-2.7,0.5c-0.1,0-0.1,0.1-0.1,0.1c0,0.1,0,0.1,0,0.2L12.2,11.4z"/>
</g>
</svg>
