<?xml version="1.0" encoding="utf-8"?>
<!-- Generator: Adobe Illustrator 23.0.5, SVG Export Plug-In . SVG Version: 6.00 Build 0)  -->
<svg version="1.1" id="Layer_1" xmlns="http://www.w3.org/2000/svg" xmlns:xlink="http://www.w3.org/1999/xlink" x="0px" y="0px"
	 viewBox="0 0 30 30" style="enable-background:new 0 0 30 30;" xml:space="preserve">
<g>
	<path d="M29.9,14.5l-2.8-1.4l-2.9-4l-4.1,0V5.8h-13v1.7h11.3v12.6h-6c-0.4-1.3-1.6-2.3-3-2.3c-1.4,0-2.6,1-3,2.3H5.2v1.7h1.2
		c0.4,1.3,1.6,2.3,3,2.3c1.4,0,2.6-1,3-2.3h6.9h0.8h0.6c0.4,1.3,1.6,2.3,3,2.3c1.4,0,2.6-1,3-2.3h3.3V14.5z M9.4,22.5
		c-0.8,0-1.4-0.6-1.4-1.4s0.6-1.4,1.4-1.4c0.8,0,1.4,0.6,1.4,1.4S10.2,22.5,9.4,22.5z M23.7,22.5c-0.8,0-1.4-0.6-1.4-1.4
		s0.6-1.4,1.4-1.4s1.4,0.6,1.4,1.4S24.5,22.5,23.7,22.5z M28.3,20.2h-1.6c-0.4-1.3-1.6-2.3-3-2.3c-1.4,0-2.6,1-3,2.3h-0.6v-9.2
		l3.2,0l2.7,3.6l2.3,1.1V20.2z"/>
	<rect x="0.1" y="14.8" width="9.3" height="1.7"/>
	<rect x="4" y="10.1" width="5.4" height="1.7"/>
</g>
</svg>
