<?xml version="1.0" encoding="utf-8"?>
<!-- Generator: Adobe Illustrator 23.0.5, SVG Export Plug-In . SVG Version: 6.00 Build 0)  -->
<svg version="1.1" id="Layer_1" xmlns="http://www.w3.org/2000/svg" xmlns:xlink="http://www.w3.org/1999/xlink" x="0px" y="0px"
	 viewBox="0 0 30 30" style="enable-background:new 0 0 30 30;" xml:space="preserve">
<g>
	<polygon points="30.1,26.6 25.3,18.4 23.9,19.2 27.1,24.9 16.9,24.9 18.7,22.8 17.4,21.7 13.9,25.7 13.6,26.1 13.6,26.1 13.6,26.1 
		17.8,29.8 19,28.6 16.7,26.6 	"/>
	<polygon points="20.6,13.6 17.5,13.1 17.3,14.8 22.5,15.5 23,15.6 23,15.6 23,15.6 23.9,10 22.2,9.7 21.8,12.3 15.1,0.7 10.3,9 
		11.8,9.8 15.1,4.1 	"/>
	<polygon points="9.8,17.1 11.4,16.6 9.7,11.7 9.5,11.2 9.5,11.2 9.5,11.1 4.2,13 4.7,14.6 7.7,13.6 0.1,26.6 10.2,26.6 10.2,24.9 
		3.1,24.9 9,14.7 	"/>
</g>
</svg>
