<?xml version="1.0" encoding="utf-8"?>
<!-- Generator: Adobe Illustrator 23.0.5, SVG Export Plug-In . SVG Version: 6.00 Build 0)  -->
<svg version="1.1" id="Layer_1" xmlns="http://www.w3.org/2000/svg" xmlns:xlink="http://www.w3.org/1999/xlink" x="0px" y="0px"
	 viewBox="0 0 30 30" style="enable-background:new 0 0 30 30;" xml:space="preserve">
<path d="M27.8,5.3c-1.4-1.4-3.2-2.1-5.1-2.1c-1.9,0-3.8,0.8-5.1,2.1L15,7.8l-2.5-2.5c-1.4-1.4-3.2-2.1-5.1-2.1
	c-1.9,0-3.8,0.8-5.1,2.1c-2.8,2.8-2.8,7.4,0,10.2l3.4,3.4l-3.3-0.6l-0.3,1.8l5.8,1l0.6,0.1l0,0l0,0L9.7,15l-1.9-0.4L7.2,18l-3.8-3.8
	c-2.1-2.1-2.1-5.6,0-7.7c1-1,2.4-1.6,3.9-1.6s2.9,0.6,3.9,1.6l3.7,3.7l3.7-3.7c2.2-2.2,5.7-2.2,7.8,0c2.1,2.1,2.1,5.6,0,7.7L13.8,27
	l1.2,1.2l12.8-12.8C30.5,12.6,30.5,8.1,27.8,5.3z"/>
</svg>
