<?xml version="1.0" encoding="utf-8"?>
<!-- Generator: Adobe Illustrator 23.0.5, SVG Export Plug-In . SVG Version: 6.00 Build 0)  -->
<svg version="1.1" id="Layer_1" xmlns="http://www.w3.org/2000/svg" xmlns:xlink="http://www.w3.org/1999/xlink" x="0px" y="0px"
	 viewBox="0 0 25 25" style="enable-background:new 0 0 25 25;" xml:space="preserve">
<g>
	<rect x="11.8" y="2.3" transform="matrix(6.278017e-03 -1 1 6.278017e-03 6.4817 18.7251)" width="1.7" height="7.7"/>
	<path d="M1.3,1.1v22.7H24V1.1H1.3z M22.3,15.9l-5.6,0l0-4.9l5.6,0V15.9z M10.3,15.9l0-4.9l4.8,0l0,4.9L10.3,15.9z M15.1,17.6l0,4.5
		h-4.8l0-4.5L15.1,17.6z M3,11.1l5.5,0l0,4.9l-5.5,0V11.1z M22.3,2.8v6.5L3,9.4V2.8H22.3z M3,17.6l5.6,0l0,4.5H3V17.6z M16.8,22.1
		l0-4.5l5.5,0v4.5H16.8z"/>
</g>
</svg>
