<?xml version="1.0" encoding="utf-8"?>
<!-- Generator: Adobe Illustrator 23.0.5, SVG Export Plug-In . SVG Version: 6.00 Build 0)  -->
<svg version="1.1" id="Layer_1" xmlns="http://www.w3.org/2000/svg" xmlns:xlink="http://www.w3.org/1999/xlink" x="0px" y="0px"
	 viewBox="0 0 30 30" style="enable-background:new 0 0 30 30;" xml:space="preserve">
<path d="M29.81,28.64l-5.36-5.49c2.13-2.42,3.43-5.59,3.43-9.07c0-7.59-6.17-13.77-13.77-13.77S0.35,6.49,0.35,14.08
	c0,7.59,6.18,13.77,13.77,13.77c3.51,0,6.7-1.33,9.13-3.49l5.34,5.48L29.81,28.64z M14.12,26.15c-6.65,0-12.07-5.41-12.07-12.07
	c0-6.65,5.41-12.07,12.07-12.07s12.07,5.41,12.07,12.07C26.18,20.73,20.77,26.15,14.12,26.15z"/>
</svg>
