<?xml version="1.0" encoding="utf-8"?>
<!-- Generator: Adobe Illustrator 23.0.5, SVG Export Plug-In . SVG Version: 6.00 Build 0)  -->
<svg version="1.1" id="Layer_1" xmlns="http://www.w3.org/2000/svg" xmlns:xlink="http://www.w3.org/1999/xlink" x="0px" y="0px"
	 viewBox="0 0 30 30" style="enable-background:new 0 0 30 30;" xml:space="preserve">
<g>
	<path d="M15,0.1C6.8,0.1,0.1,6.8,0.1,15S6.8,29.8,15,29.8S29.8,23.2,29.8,15S23.2,0.1,15,0.1z M15,28.2C7.7,28.2,1.9,22.3,1.9,15
		S7.7,1.9,15,1.9S28.2,7.7,28.2,15S22.3,28.2,15,28.2z"/>
	<polygon points="8.6,18.5 17.5,5.1 16.1,4.2 7.3,17.5 6.7,14.4 5,14.7 6.1,20.7 12.1,19.6 11.8,17.9 	"/>
	<polygon points="24.6,8.7 18.6,9.8 18.9,11.5 22.1,10.9 13.2,24.2 14.6,25.2 23.4,11.9 24,15 25.7,14.6 	"/>
</g>
</svg>
