<?xml version="1.0" encoding="utf-8"?>
<!-- Generator: Adobe Illustrator 23.0.5, SVG Export Plug-In . SVG Version: 6.00 Build 0)  -->
<svg version="1.1" id="Layer_1" xmlns="http://www.w3.org/2000/svg" xmlns:xlink="http://www.w3.org/1999/xlink" x="0px" y="0px"
	 viewBox="0 0 30 30" style="enable-background:new 0 0 30 30;" xml:space="preserve">
<g>
	<path d="M22.5,2h-2.7c-0.6,0-1,0.5-1,1s0.5,1,1,1h2.7c0.6,0,1-0.5,1-1S23,2,22.5,2z"/>
	<path d="M10.2,2H7.5c-0.6,0-1,0.5-1,1s0.5,1,1,1h2.7c0.6,0,1-0.5,1-1S10.8,2,10.2,2z"/>
	<path d="M15,5.3c0.6,0,1-0.5,1-1V1.6c0-0.6-0.5-1-1-1c-0.6,0-1,0.5-1,1v2.7C14,4.9,14.4,5.3,15,5.3z"/>
	<path d="M16.3,8h-2.7c-0.6,0-1,0.5-1,1c0,0.6,0.5,1,1,1h2.7c0.6,0,1-0.5,1-1C17.3,8.4,16.9,8,16.3,8z"/>
	<path d="M4.1,8H1.4c-0.6,0-1,0.5-1,1c0,0.6,0.5,1,1,1h2.7c0.6,0,1-0.5,1-1C5.1,8.4,4.7,8,4.1,8z"/>
	<path d="M9.9,10.3V7.6c0-0.6-0.5-1-1-1s-1,0.5-1,1v2.7c0,0.6,0.5,1,1,1S9.9,10.9,9.9,10.3z"/>
	<path d="M25.9,10h2.7c0.6,0,1-0.5,1-1c0-0.6-0.5-1-1-1h-2.7c-0.6,0-1,0.5-1,1C24.9,9.5,25.4,10,25.9,10z"/>
	<path d="M22.1,10.3V7.6c0-0.6-0.5-1-1-1s-1,0.5-1,1v2.7c0,0.6,0.5,1,1,1S22.1,10.9,22.1,10.3z"/>
	<path d="M16.3,20h-2.7c-0.6,0-1,0.5-1,1c0,0.6,0.5,1,1,1h2.7c0.6,0,1-0.5,1-1C17.3,20.4,16.9,20,16.3,20z"/>
	<path d="M4.1,20H1.4c-0.6,0-1,0.5-1,1c0,0.6,0.5,1,1,1h2.7c0.6,0,1-0.5,1-1C5.1,20.4,4.6,20,4.1,20z"/>
	<path d="M7.9,19.6v2.7c0,0.6,0.5,1,1,1s1-0.5,1-1v-2.7c0-0.6-0.5-1-1-1S7.9,19.1,7.9,19.6z"/>
	<path d="M28.6,20h-2.7c-0.6,0-1,0.5-1,1c0,0.6,0.5,1,1,1h2.7c0.6,0,1-0.5,1-1C29.6,20.4,29.1,20,28.6,20z"/>
	<path d="M22.1,22.3v-2.7c0-0.6-0.5-1-1-1c-0.6,0-1,0.5-1,1v2.7c0,0.6,0.5,1,1,1C21.7,23.3,22.1,22.9,22.1,22.3z"/>
	<path d="M6.5,14.9c0,0.6,0.5,1,1,1h2.7c0.6,0,1-0.5,1-1c0-0.6-0.5-1-1-1H7.5C7,13.9,6.5,14.3,6.5,14.9z"/>
	<path d="M3.7,16.2v-2.7c0-0.6-0.5-1-1-1s-1,0.5-1,1v2.7c0,0.6,0.5,1,1,1S3.7,16.8,3.7,16.2z"/>
	<path d="M22.5,13.9h-2.7c-0.6,0-1,0.5-1,1c0,0.6,0.5,1,1,1h2.7c0.6,0,1-0.5,1-1C23.5,14.3,23,13.9,22.5,13.9z"/>
	<path d="M16,16.2v-2.7c0-0.6-0.5-1-1-1c-0.6,0-1,0.5-1,1v2.7c0,0.6,0.5,1,1,1C15.5,17.3,16,16.8,16,16.2z"/>
	<path d="M26.2,13.6v2.7c0,0.6,0.5,1,1,1s1-0.5,1-1v-2.7c0-0.6-0.5-1-1-1S26.2,13,26.2,13.6z"/>
	<path d="M22.4,26h-2.7c-0.6,0-1,0.5-1,1s0.5,1,1,1h2.7c0.6,0,1-0.5,1-1S23,26,22.4,26z"/>
	<path d="M10.2,26H7.5c-0.6,0-1,0.5-1,1s0.5,1,1,1h2.7c0.6,0,1-0.5,1-1S10.8,26,10.2,26z"/>
	<path d="M15,24.7c-0.6,0-1,0.5-1,1v2.7c0,0.6,0.5,1,1,1s1-0.5,1-1v-2.7C16,25.1,15.5,24.7,15,24.7z"/>
</g>
</svg>
