<?xml version="1.0" encoding="utf-8"?>
<!-- Generator: Adobe Illustrator 23.0.5, SVG Export Plug-In . SVG Version: 6.00 Build 0)  -->
<svg version="1.1" id="Layer_1" xmlns="http://www.w3.org/2000/svg" xmlns:xlink="http://www.w3.org/1999/xlink" x="0px" y="0px"
	 viewBox="0 0 328 80" style="enable-background:new 0 0 328 80;" xml:space="preserve">
<style type="text/css">
	.st0{fill:#2ADA71;}
	.st1{fill:#FFC21F;}
</style>
<g>
	<g>
		<path class="st0" d="M99.6,44l10.1-0.5c0.1,3.3,0.7,5.6,1.6,6.8c1.5,1.9,4.4,2.8,8.6,2.8c3.5,0,6-0.6,7.5-1.9
			c1.5-1.3,2.3-2.8,2.3-4.7c0-1.6-0.6-2.9-1.9-4c-0.9-0.8-3.3-2.1-7.3-3.9c-4-1.8-6.9-3.3-8.7-4.5c-1.8-1.2-3.3-2.8-4.3-4.7
			c-1.1-1.9-1.6-4.2-1.6-6.8c0-4.5,1.6-8.2,4.7-11.2c3.1-3,7.7-4.5,13.6-4.5c6,0,10.7,1.5,14,4.4c3.3,2.9,5.1,6.9,5.5,11.8
			l-10.1,0.5c-0.3-2.6-1.1-4.5-2.7-5.9c-1.5-1.4-3.8-2-6.7-2c-2.9,0-5,0.5-6.3,1.6c-1.3,1.1-1.9,2.4-1.9,4.1c0,1.5,0.6,2.8,1.7,3.8
			c1.1,1,3.7,2.4,7.6,4.2c5.9,2.7,9.7,4.8,11.3,6.5c2.4,2.4,3.6,5.6,3.6,9.4c0,4.7-1.8,8.8-5.4,12.1c-3.6,3.3-8.6,5-15,5
			c-4.4,0-8.2-0.8-11.5-2.3c-3.2-1.5-5.5-3.7-6.9-6.4C100.1,50.7,99.5,47.6,99.6,44z"/>
		<path class="st0" d="M155.4,22.6h9.5l-0.8,4c2-1.8,3.9-3,5.7-3.8c1.8-0.8,3.7-1.1,5.7-1.1c3.9,0,7,1.4,9.4,4.2
			c2.4,2.8,3.6,7,3.6,12.5c0,7-2,12.9-6.1,17.7c-3.5,4.1-7.7,6.2-12.4,6.2c-4.9,0-8.7-2.1-11.2-6.2l-4,20.1h-10.1L155.4,22.6z
			 M161.5,44.8c0,3,0.7,5.4,2.1,7c1.4,1.7,3.1,2.5,5,2.5c1.7,0,3.3-0.6,4.8-1.9c1.5-1.3,2.8-3.3,3.8-6.2c1-2.9,1.5-5.6,1.5-8.1
			c0-2.9-0.7-5.1-2-6.7c-1.3-1.5-3-2.3-5.1-2.3c-1.9,0-3.7,0.7-5.2,2.1c-1.6,1.4-2.8,3.5-3.7,6.3C161.9,40.3,161.5,42.7,161.5,44.8z
			"/>
		<path class="st0" d="M230.2,45.2H205c0,0.4,0,0.7,0,0.9c0,2.6,0.7,4.7,2.1,6.2c1.4,1.6,3.1,2.4,5.2,2.4c3.3,0,5.9-1.8,7.8-5.4
			l9,1.6c-1.8,3.8-4.1,6.6-7,8.5c-2.9,1.9-6.2,2.8-9.9,2.8c-5,0-9.1-1.6-12.2-4.9c-3.1-3.3-4.7-7.7-4.7-13.1c0-5.3,1.4-10,4.2-14.2
			c3.9-5.6,9.4-8.4,16.5-8.4c4.6,0,8.2,1.5,10.9,4.4c2.7,2.9,4,7,4,12.3C230.9,40.9,230.7,43.2,230.2,45.2z M221.7,38.8
			c0-0.5,0-0.8,0-1.1c0-2.9-0.6-5-1.9-6.5c-1.2-1.4-2.9-2.2-5-2.2s-3.9,0.8-5.6,2.4s-2.8,4-3.3,7.2H221.7z"/>
		<path class="st0" d="M272.3,45.2H247c0,0.4,0,0.7,0,0.9c0,2.6,0.7,4.7,2.1,6.2c1.4,1.6,3.1,2.4,5.2,2.4c3.3,0,5.9-1.8,7.8-5.4
			l9,1.6c-1.8,3.8-4.1,6.6-7,8.5c-2.9,1.9-6.2,2.8-9.9,2.8c-5,0-9.1-1.6-12.2-4.9c-3.1-3.3-4.7-7.7-4.7-13.1c0-5.3,1.4-10,4.2-14.2
			c3.9-5.6,9.4-8.4,16.5-8.4c4.6,0,8.2,1.5,10.9,4.4c2.7,2.9,4,7,4,12.3C273,40.9,272.8,43.2,272.3,45.2z M263.8,38.8
			c0-0.5,0-0.8,0-1.1c0-2.9-0.6-5-1.9-6.5c-1.2-1.4-2.9-2.2-5-2.2s-3.9,0.8-5.6,2.4s-2.8,4-3.3,7.2H263.8z"/>
		<path class="st0" d="M312.5,61.3H303l0.8-4.2c-1.8,1.8-3.6,3.1-5.4,3.9c-1.8,0.8-3.8,1.2-6,1.2c-3.9,0-7-1.4-9.4-4.1
			c-2.4-2.7-3.6-6.8-3.6-12.1c0-6.2,1.7-11.8,5-16.8c3.4-5,7.8-7.5,13.4-7.5c5,0,8.8,2.1,11.3,6.2l4-20h10.1L312.5,61.3z
			 M289.3,45.6c0,2.8,0.7,4.9,2,6.5c1.3,1.6,3,2.3,5,2.3c1.8,0,3.5-0.7,5.1-2c1.6-1.3,2.8-3.3,3.8-6c0.9-2.7,1.4-5.2,1.4-7.7
			c0-2.8-0.7-5.1-2.2-6.8c-1.4-1.7-3.1-2.6-5-2.6c-2.9,0-5.4,1.7-7.3,5.1C290.2,37.9,289.3,41.6,289.3,45.6z"/>
	</g>
	<g>
		<rect x="4" y="8.2" class="st1" width="85" height="8"/>
		<rect x="33" y="31.7" class="st1" width="56" height="8"/>
	</g>
</g>
</svg>
