<?xml version="1.0" encoding="utf-8"?>
<!-- Generator: Adobe Illustrator 23.0.5, SVG Export Plug-In . SVG Version: 6.00 Build 0)  -->
<svg version="1.1" id="Layer_1" xmlns="http://www.w3.org/2000/svg" xmlns:xlink="http://www.w3.org/1999/xlink" x="0px" y="0px"
	 viewBox="0 0 30 30" style="enable-background:new 0 0 30 30;" xml:space="preserve">
<path d="M29.5,11.6c-0.1-0.2-0.2-0.4-0.5-0.4l-9-1.7l-4.2-8.1c-0.1-0.2-0.3-0.3-0.5-0.3c-0.2,0-0.4,0.1-0.5,0.3l-4.4,8L1,11
	c-0.2,0-0.4,0.2-0.5,0.4c-0.1,0.2,0,0.4,0.1,0.6l6.3,6.7L6,28.3c0,0.2,0.1,0.4,0.3,0.5c0.1,0.1,0.2,0.1,0.4,0.1c0.1,0,0.2,0,0.3-0.1
	l8.5-3.9l7.9,3.5c0.2,0.1,0.4,0.1,0.6-0.1c0.2-0.1,0.3-0.3,0.2-0.6l-1.3-9.1l6.5-6.6C29.5,12,29.5,11.8,29.5,11.6z"/>
</svg>
