<?xml version="1.0" encoding="utf-8"?>
<!-- Generator: Adobe Illustrator 23.0.5, SVG Export Plug-In . SVG Version: 6.00 Build 0)  -->
<svg version="1.1" id="Layer_1" xmlns="http://www.w3.org/2000/svg" xmlns:xlink="http://www.w3.org/1999/xlink" x="0px" y="0px"
	 viewBox="0 0 25 25" style="enable-background:new 0 0 25 25;" xml:space="preserve">
<style type="text/css">
	.st0{stroke:#F5F5F5;stroke-width:1.7;stroke-miterlimit:10;}
	.st1{fill:#E5E5E5;}
</style>
<g>
	<path d="M0.4,5v16.2H5h10.6h4.6V5H0.4z M6.7,19.5v-7.6h2.8v7.6H6.7z M11.1,19.5v-7.6H14v7.6H11.1z M18.6,19.5h-2.9v-9.2H5.1v9.2h-3
		V6.6h16.5V19.5z"/>
	<path class="st0" d="M23.8,9.8c-1.1,5.6-6,10.7-6,10.7s-4.5-4.7-5.9-10.6c-1.1-5,2.6-8,5.9-8S24.8,4.7,23.8,9.8z"/>
	<path class="st1" d="M17.8,6.1c-1.1,0-2,0.9-2,2s0.9,2,2,2s2-0.9,2-2S18.9,6.1,17.8,6.1z"/>
</g>
</svg>
