<?xml version="1.0" encoding="utf-8"?>
<!-- Generator: Adobe Illustrator 23.0.5, SVG Export Plug-In . SVG Version: 6.00 Build 0)  -->
<svg version="1.1" xmlns="http://www.w3.org/2000/svg" xmlns:xlink="http://www.w3.org/1999/xlink" x="0px" y="0px"
	 viewBox="0 0 25 22.7" style="enable-background:new 0 0 25 22.7;" xml:space="preserve">
<style type="text/css">
	.st0{display:none;}
</style>
<g id="Layer_1" class="st0">
</g>
<g id="Layer_2">
	<g>
		<path d="M8.6,9.2c1.5,0,2.7-1.2,2.7-2.7s-1.2-2.7-2.7-2.7c-1.5,0-2.7,1.2-2.7,2.7S7.1,9.2,8.6,9.2z M8.6,5.6c0.5,0,1,0.4,1,1
			s-0.4,1-1,1s-1-0.4-1-1S8,5.6,8.6,5.6z"/>
		<path d="M11.3,11.6c-1.2-1.1-2.8-1.1-2.9-1.1C7.1,10.6,6,11.1,5.3,12c-1.1,1.3-0.8,3-0.8,3.1l1.7-0.3c0,0-0.1-1,0.4-1.8
			c0.4-0.5,1-0.8,1.9-0.8c0,0,0.9,0,1.6,0.6c0.5,0.4,0.7,1.2,0.7,2.1l1.7,0C12.5,13.5,12.1,12.4,11.3,11.6z"/>
		<path d="M24.9,18V0.2H0.1V18h11.8v1.7H8v1.7h9.5v-1.7h-3.9V18H24.9z M17.9,7.6h5.2v3.6h-5.2V7.6z M17.9,16.3V13h5.2v3.4H17.9z
			 M23.2,5.9h-5.2v-4h5.2V5.9z M1.8,1.9h14.4v14.4H1.8V1.9z"/>
	</g>
</g>
</svg>
