<?xml version="1.0" encoding="utf-8"?>
<!-- Generator: Adobe Illustrator 23.0.5, SVG Export Plug-In . SVG Version: 6.00 Build 0)  -->
<svg version="1.1" id="Layer_1" xmlns="http://www.w3.org/2000/svg" xmlns:xlink="http://www.w3.org/1999/xlink" x="0px" y="0px"
	 viewBox="0 0 30 30" style="enable-background:new 0 0 30 30;" xml:space="preserve">
<g>
	<path d="M26.8,10.8c0.6,1.7,0.8,3.2,0.8,4.5c0,7.1-5.8,12.8-12.8,12.8C7.8,28.1,2,22.4,2,15.3S7.8,2.4,14.8,2.4
		c1.3,0,2.6,0.2,3.9,0.6l0.5-1.6c-1.5-0.4-2.9-0.7-4.4-0.7c-8,0-14.5,6.5-14.5,14.5s6.5,14.5,14.5,14.5c8,0,14.5-6.5,14.5-14.5
		c0-1.5-0.3-3.2-0.9-5L26.8,10.8z"/>
	<path d="M15.1,8.1c0.7,0,1.3,0.1,2,0.3l0.5-1.6c-0.8-0.3-1.7-0.4-2.5-0.4c-4.8,0-8.5,3.7-8.5,8.5c0,4.8,3.7,8.5,8.5,8.5
		c4.8,0,8.5-3.7,8.5-8.5c0-1.2-0.2-2.2-0.6-3.1l-1.6,0.7c0.3,0.7,0.4,1.4,0.4,2.4c0,3.8-3,6.8-6.8,6.8c-3.8,0-6.8-3-6.8-6.8
		C8.3,11.1,11.3,8.1,15.1,8.1z"/>
	<path d="M15.1,12.9c-1.1,0-2,0.9-2,2s0.9,2,2,2s2-0.9,2-2c0-0.2,0-0.4-0.1-0.6L29.8,1.4l-1.2-1.2L15.9,13
		C15.6,12.9,15.4,12.9,15.1,12.9z"/>
</g>
</svg>
