<?xml version="1.0" encoding="utf-8"?>
<!-- Generator: Adobe Illustrator 23.0.5, SVG Export Plug-In . SVG Version: 6.00 Build 0)  -->
<svg version="1.1" id="Layer_1" xmlns="http://www.w3.org/2000/svg" xmlns:xlink="http://www.w3.org/1999/xlink" x="0px" y="0px"
	 viewBox="0 0 30 30" style="enable-background:new 0 0 30 30;" xml:space="preserve">
<g>
	<path d="M8,14.5h4.5V11c0.7-0.6,1.1-1.5,1.1-2.5c0-1.9-1.5-3.4-3.4-3.4S6.9,6.7,6.9,8.6c0,1,0.4,1.9,1.1,2.5V14.5z M11.5,13.5H9
		v-1.8c0.4,0.2,0.8,0.2,1.3,0.2c0.4,0,0.9-0.1,1.2-0.2V13.5z M7.9,8.6c0-1.3,1.1-2.4,2.4-2.4s2.4,1.1,2.4,2.4c0,1.3-1.1,2.4-2.4,2.4
		S7.9,9.9,7.9,8.6z"/>
	<path d="M9.6,8.8L9.5,9.7c0,0,0,0,0,0c0,0,0,0,0,0c0,0,0,0,0,0l0.8-0.3L11,9.7c0,0,0,0,0.1,0c0,0,0,0,0-0.1L11,8.8l0.6-0.6
		c0,0,0,0,0-0.1c0,0,0,0,0,0L10.7,8l-0.4-0.7c0,0,0,0,0,0c0,0,0,0,0,0L9.9,8L9,8.1c0,0,0,0,0,0s0,0,0,0.1L9.6,8.8z"/>
	<path d="M19.8,1.4H3.1v28.2h21.7v-22L19.8,1.4z M20.4,4.8L22.2,7h-1.8V4.8z M23.2,27.9H4.9V3.1h13.8v5.6h4.5V27.9z"/>
	<rect x="7.2" y="18.1" width="14.2" height="1.5"/>
	<rect x="7.2" y="22.2" width="9.4" height="1.5"/>
</g>
</svg>
