<?xml version="1.0" encoding="utf-8"?>
<!-- Generator: Adobe Illustrator 23.0.5, SVG Export Plug-In . SVG Version: 6.00 Build 0)  -->
<svg version="1.1" id="Layer_1" xmlns="http://www.w3.org/2000/svg" xmlns:xlink="http://www.w3.org/1999/xlink" x="0px" y="0px"
	 viewBox="0 0 30 30" style="enable-background:new 0 0 30 30;" xml:space="preserve">
<g>
	<path d="M11.5,18.9c1,0.5,2,0.8,3.1,0.8c0,0,0,0,0,0c3.6,0,6.5-2.9,6.6-6.5c0-3.3-5.2-11.1-5.8-12l-0.7-1l-0.7,1
		c-0.6,0.9-5.9,8.6-5.9,12v0c0,1.4,0.4,2.8,1.3,4C10,17.8,10.7,18.5,11.5,18.9z M14.7,3.2c1.8,2.8,4.8,7.9,4.8,10
		c0,2.7-2.2,4.8-4.9,4.8c0,0,0,0,0,0c-0.8,0-1.6-0.2-2.3-0.6c-0.6-0.3-1.1-0.8-1.5-1.3c-0.6-0.9-1-1.9-1-2.9
		C9.8,11.1,12.9,6,14.7,3.2z"/>
	<polygon points="16.7,28.1 24.5,22.2 24.4,23.8 26,23.9 26.3,20 26.3,19.5 21.9,19.1 21.8,20.7 23.5,20.8 15.9,26.6 6.1,19.5 
		5.1,20.9 15.1,28.1 0.1,28.1 0.1,29.8 30.1,29.9 30.1,28.2 	"/>
</g>
</svg>
