<?xml version="1.0" encoding="utf-8"?>
<!-- Generator: Adobe Illustrator 23.0.5, SVG Export Plug-In . SVG Version: 6.00 Build 0)  -->
<svg version="1.1" id="Layer_1" xmlns="http://www.w3.org/2000/svg" xmlns:xlink="http://www.w3.org/1999/xlink" x="0px" y="0px"
	 viewBox="0 0 30 30" style="enable-background:new 0 0 30 30;" xml:space="preserve">
<g>
	<path d="M15.1,20.3c3.3,0,6-2.7,6-6V6.7c0-3.3-2.7-6-6-6s-6,2.7-6,6v7.6C9.1,17.6,11.8,20.3,15.1,20.3z M11.1,6.7c0-2.2,1.8-4,4-4
		s4,1.8,4,4v7.6c0,2.2-1.8,4-4,4s-4-1.8-4-4V6.7z"/>
	<path d="M16.1,24.9c4-0.4,7.6-3,9.4-7.1L23.7,17C22,20.7,18.7,23,15.1,23s-6.9-2.3-8.6-5.9l-1.8,0.8c1.8,4,5.4,6.7,9.4,7.1L14,27.3
		H6v2h18.2v-2H16L16.1,24.9z"/>
</g>
</svg>
