<?xml version="1.0" encoding="utf-8"?>
<!-- Generator: Adobe Illustrator 23.0.5, SVG Export Plug-In . SVG Version: 6.00 Build 0)  -->
<svg version="1.1" id="Layer_1" xmlns="http://www.w3.org/2000/svg" xmlns:xlink="http://www.w3.org/1999/xlink" x="0px" y="0px"
	 viewBox="0 0 30 30" style="enable-background:new 0 0 30 30;" xml:space="preserve">
<g>
	<g>
		<path d="M28.3,11V20l-2.4-1.4l-2.2-1.3l0-3.8l2.2-1.2L28.3,11 M29.8,8.5c-2.5,1.4-5,2.8-7.6,4.2c0,1.8,0,3.7,0,5.5
			c2.5,1.5,5.1,2.9,7.6,4.4V8.5L29.8,8.5z"/>
	</g>
	<g>
		<polygon points="4.7,20.3 4.7,8.2 16.9,8.2 18.4,6.7 3.2,6.7 3.2,21.8 		"/>
		<polygon points="19.4,10.7 19.4,22.9 7.3,22.9 5.8,24.4 20.9,24.4 20.9,9.2 		"/>
	</g>
	<g>
		<path d="M12.5,12.6c-0.1,0-0.3,0-0.4,0c-1.7,0-3,1.3-3,3c0,0.1,0,0.3,0,0.4L12.5,12.6z"/>
		<path d="M11.7,18.5c0.1,0,0.3,0,0.4,0c1.7,0,3-1.3,3-3c0-0.1,0-0.3,0-0.4L11.7,18.5z"/>
	</g>
	<rect x="-2.2" y="14.7" transform="matrix(0.7071 -0.7071 0.7071 0.7071 -7.4455 13.0729)" width="28.6" height="1.6"/>
</g>
</svg>
