<?xml version="1.0" encoding="utf-8"?>
<!-- Generator: Adobe Illustrator 23.0.5, SVG Export Plug-In . SVG Version: 6.00 Build 0)  -->
<svg version="1.1" id="Layer_1" xmlns="http://www.w3.org/2000/svg" xmlns:xlink="http://www.w3.org/1999/xlink" x="0px" y="0px"
	 viewBox="0 0 30 30" style="enable-background:new 0 0 30 30;" xml:space="preserve">
<g>
	<path d="M15.1,18.3c-0.3,0-0.6,0-0.9-0.1l-1.6,1.6c0.8,0.3,1.6,0.5,2.5,0.5c3.3,0,6-2.7,6-6v-3l-2,2v1
		C19.1,16.5,17.3,18.3,15.1,18.3z"/>
	<path d="M11.2,15.1c-0.1-0.3-0.1-0.6-0.1-0.9V6.7c0-2.2,1.8-4,4-4s4,1.8,4,4v0.5l1.9-1.9c-0.6-2.7-3-4.7-5.9-4.7c-3.3,0-6,2.7-6,6
		v7.6c0,0.9,0.2,1.7,0.5,2.4L11.2,15.1z"/>
	<path d="M7.5,18.7c-0.4-0.5-0.7-1.1-1-1.7l-1.8,0.8c0.4,0.8,0.8,1.6,1.4,2.3L7.5,18.7z"/>
	<path d="M25.5,17.9L23.7,17C22,20.7,18.7,23,15.1,23c-1.6,0-3.2-0.5-4.5-1.3l-1.4,1.4c1.5,1,3.2,1.6,5,1.8L14,27.3H6v2h18.2v-2H16
		l0.1-2.4C20.1,24.6,23.7,21.9,25.5,17.9z"/>
	<rect x="-0.6" y="13.2" transform="matrix(0.7071 -0.7071 0.7071 0.7071 -5.7089 14.688)" width="30.9" height="2.1"/>
</g>
</svg>
