<?xml version="1.0" encoding="utf-8"?>
<!-- Generator: Adobe Illustrator 23.0.5, SVG Export Plug-In . SVG Version: 6.00 Build 0)  -->
<svg version="1.1" id="Layer_1" xmlns="http://www.w3.org/2000/svg" xmlns:xlink="http://www.w3.org/1999/xlink" x="0px" y="0px"
	 viewBox="0 0 48 48" style="enable-background:new 0 0 48 48;" xml:space="preserve">
<path d="M24.1,33.3c-5.5,0-9.8-4.3-9.8-9.8s4.3-9.8,9.8-9.8s9.8,4.3,9.8,9.8S29.5,33.3,24.1,33.3z M24.1,16.5c-3.9,0-7,3.1-7,7
	s3.1,7,7,7s7-3.1,7-7S28,16.5,24.1,16.5z"/>
<circle cx="34.6" cy="13" r="2.1"/>
<path d="M32.5,41.7H15.7c-5.5,0-9.8-4.3-9.8-9.8V15.1c0-5.5,4.3-9.8,9.8-9.8h16.8c5.5,0,9.8,4.3,9.8,9.8v16.8
	C42.3,37.4,37.9,41.7,32.5,41.7z M15.7,8.1c-3.9,0-7,3.1-7,7v16.8c0,3.9,3.1,7,7,7h16.8c3.9,0,7-3.1,7-7V15.1c0-3.9-3.1-7-7-7H15.7z
	"/>
</svg>
