<?xml version="1.0" encoding="utf-8"?>
<!-- Generator: Adobe Illustrator 23.0.5, SVG Export Plug-In . SVG Version: 6.00 Build 0)  -->
<svg version="1.1" id="Layer_1" xmlns="http://www.w3.org/2000/svg" xmlns:xlink="http://www.w3.org/1999/xlink" x="0px" y="0px"
	 viewBox="0 0 48 48" style="enable-background:new 0 0 48 48;" xml:space="preserve">
<style type="text/css">
	.st0{fill:#FFFFFF;}
</style>
<path d="M42,37c0,2.8-2.2,5-5,5H11c-2.8,0-5-2.2-5-5V11c0-2.8,2.2-5,5-5h26c2.8,0,5,2.2,5,5V37z"/>
<path class="st0" d="M12,19h5v17h-5V19z M14.5,17L14.5,17C13,17,12,15.9,12,14.5c0-1.4,1-2.5,2.5-2.5c1.5,0,2.5,1.1,2.5,2.5
	C17,15.9,16,17,14.5,17z M36,36h-5v-9.1c0-2.2-1.2-3.7-3.2-3.7c-1.5,0-2.3,1-2.7,2C25,25.5,25,26.5,25,27v9h-5V19h5v2.6
	c0.7-1.1,1.9-2.6,4.7-2.6c3.6,0,6.3,2.3,6.3,7.3L36,36L36,36z"/>
</svg>
